<?xml version="1.0" encoding="UTF-8"?> <svg xmlns="http://www.w3.org/2000/svg" width="147" height="50" viewBox="0 0 147 50" fill="none"> <g clip-path="url(#clip0_1111_24882)"> <path fill-rule="evenodd" clip-rule="evenodd" d="M0 0.000100015V4.37598C0.426273 4.35479 0.852434 4.4199 1.2526 4.56735C1.65276 4.71481 2.01858 4.94153 2.32783 5.23375C2.63708 5.52597 2.8833 5.87759 3.05155 6.26726C3.2198 6.65692 3.30656 7.07649 3.30656 7.50049C3.30656 7.92449 3.2198 8.34406 3.05155 8.73372C2.8833 9.12339 2.63708 9.47501 2.32783 9.76723C2.01858 10.0595 1.65276 10.2862 1.2526 10.4336C0.852434 10.5811 0.426273 10.6462 0 10.625L0 16.0424C0.427245 16.0194 0.854716 16.0832 1.25632 16.2298C1.65793 16.3765 2.02525 16.6029 2.33586 16.8952C2.64646 17.1875 2.89385 17.5397 3.06291 17.9301C3.23197 18.3206 3.31916 18.7412 3.31916 19.1662C3.31916 19.5913 3.23197 20.0119 3.06291 20.4024C2.89385 20.7928 2.64646 21.145 2.33586 21.4373C2.02525 21.7296 1.65793 21.956 1.25632 22.1026C0.854716 22.2493 0.427245 22.3131 0 22.2901L0 27.7075C0.426273 27.6863 0.852434 27.7514 1.2526 27.8989C1.65276 28.0463 2.01858 28.273 2.32783 28.5653C2.63708 28.8575 2.8833 29.2091 3.05155 29.5988C3.2198 29.9884 3.30656 30.408 3.30656 30.832C3.30656 31.256 3.2198 31.6756 3.05155 32.0652C2.8833 32.4549 2.63708 32.8065 2.32783 33.0987C2.01858 33.391 1.65276 33.6177 1.2526 33.7651C0.852434 33.9126 0.426273 33.9777 0 33.9565L0 39.3739C0.426273 39.3527 0.852434 39.4178 1.2526 39.5653C1.65276 39.7127 2.01858 39.9394 2.32783 40.2317C2.63708 40.5239 2.8833 40.8755 3.05155 41.2652C3.2198 41.6548 3.30656 42.0744 3.30656 42.4984C3.30656 42.9224 3.2198 43.342 3.05155 43.7316C2.8833 44.1213 2.63708 44.4729 2.32783 44.7651C2.01858 45.0574 1.65276 45.2841 1.2526 45.4315C0.852434 45.579 0.426273 45.6441 0 45.6229L0 49.9988L52.6918 49.9987V0L0 0.000100015ZM38.0968 6.25694C39.8341 9.50268 45.1273 15.0661 43.9188 18.5582C43.1932 20.6268 41.0177 23.0474 38.0968 23.0474C35.1957 23.0474 33.0005 20.6268 32.2945 18.5582C31.0664 15.07 36.4488 9.42838 38.0968 6.25694ZM24.3023 29.7683C22.8189 29.7739 21.3982 30.3634 20.3517 31.4077C19.3051 32.452 18.718 33.8659 18.7191 35.3395C18.7191 39.9826 14.8771 43.7602 10.2164 43.7602C9.85023 43.7491 9.50283 43.5968 9.24779 43.3356C8.99275 43.0744 8.85012 42.7248 8.85012 42.3609C8.85012 41.997 8.99275 41.6474 9.24779 41.3862C9.50283 41.125 9.85023 40.9727 10.2164 40.9616C11.7186 40.9578 13.1586 40.3651 14.2232 39.3123C15.2879 38.2596 15.8912 36.8318 15.9019 35.3395C15.9008 33.1241 16.7844 30.9988 18.3587 29.4297C19.933 27.8606 22.0696 26.9759 24.2996 26.9697C24.6658 26.9808 25.0132 27.1331 25.2682 27.3943C25.5232 27.6555 25.6659 28.0051 25.6659 28.369C25.6659 28.7329 25.5232 29.0825 25.2682 29.3437C25.0132 29.6049 24.6658 29.7572 24.2996 29.7683H24.3023ZM25.7102 11.862H20.0758V17.4541H25.7102V23.0514H8.80844V6.25694H14.4415V11.862H20.0758V6.25694H25.7102V11.862ZM38.1047 43.6455C36.4332 43.6455 34.7991 43.1531 33.4093 42.2305C32.0195 41.308 30.9362 39.9967 30.2965 38.4626C29.6568 36.9284 29.4895 35.2403 29.8156 33.6116C30.1417 31.983 30.9466 30.487 32.1286 29.3128C33.3106 28.1386 34.8165 27.339 36.4559 27.015C38.0953 26.6911 39.7947 26.8573 41.339 27.4928C42.8833 28.1283 44.2032 29.2044 45.1319 30.5851C46.0606 31.9658 46.5563 33.589 46.5563 35.2496C46.5563 37.4763 45.6658 39.6119 44.0808 41.1864C42.4959 42.7609 40.3462 43.6455 38.1047 43.6455Z" fill="white"></path> <path d="M72.5873 14.2502L66.6096 0.000244141H61.418L72.5873 23.1558L83.7552 0.000244141H78.5334L72.5873 14.2502Z" fill="white"></path> <path d="M89.1752 11.3748C89.1752 9.98441 89.4692 8.7452 90.0571 7.65721C90.6167 6.60125 91.4539 5.71564 92.4797 5.09451C93.5077 4.46882 94.7032 4.15642 96.0663 4.15729C97.4495 4.15729 98.6551 4.46969 99.6831 5.09451C100.705 5.71107 101.533 6.5986 102.074 7.65721C102.641 8.73999 102.925 9.97919 102.925 11.3748C102.925 12.7704 102.631 14.0101 102.043 15.0937C101.501 16.1521 100.673 17.0395 99.6516 17.6564C98.6245 18.2812 97.4294 18.5936 96.0663 18.5936C94.7032 18.5936 93.5077 18.2812 92.4797 17.6564C91.4542 17.0349 90.6171 16.1494 90.0571 15.0937C89.4692 14.0109 89.1752 12.7713 89.1752 11.3748ZM84.4246 11.3748C84.4105 12.9459 84.6991 14.5051 85.275 15.9684C85.8236 17.3382 86.648 18.5824 87.6975 19.6247C88.7511 20.67 90.0021 21.4983 91.3786 22.0623C92.8728 22.6376 94.4639 22.9238 96.0663 22.9057C97.6586 22.9257 99.2398 22.6393 100.722 22.0623C102.099 21.5043 103.348 20.6774 104.396 19.6306C105.445 18.5837 106.271 17.3384 106.825 15.9684C107.421 14.51 107.721 12.9488 107.707 11.3748C107.727 9.81044 107.427 8.25834 106.825 6.81253C106.277 5.44376 105.44 4.2076 104.371 3.18747C103.32 2.16433 102.07 1.36581 100.696 0.841158C99.222 0.266965 97.6498 -0.0185337 96.0663 0.000394898C94.4844 -0.0132806 92.9143 0.27296 91.4403 0.843765C90.067 1.36841 88.8165 2.16693 87.7658 3.19008C86.7099 4.22157 85.8751 5.45468 85.3117 6.81514C84.7085 8.25976 84.4067 9.81096 84.4246 11.3748Z" fill="white"></path> <path d="M122.471 0.000244141L117.72 8.81327L113.001 0.000244141H107.867L115.45 12.8437V21.8744H120.012V12.8124L127.598 0.000244141H122.471Z" fill="white"></path> <path d="M135.83 0.000244141C132.108 7.29989 128.386 14.5961 124.663 21.8888H129.727L132.029 16.9198H139.582L141.903 21.8888H147C143.279 14.5961 139.556 7.29989 135.83 0.000244141ZM133.074 13.3886L135.83 7.10698L138.562 13.3886H133.074Z" fill="white"></path> <path d="M61.418 28.1248V49.9989H74.6949V46.0884H65.9167V28.1248H61.418Z" fill="white"></path> <path d="M117.17 40.9996C116.733 40.2312 116.105 39.5861 115.347 39.1252C114.722 38.725 114.044 38.4139 113.332 38.201C114.241 37.84 115.043 37.254 115.661 36.4986C116.289 35.7069 116.604 34.7588 116.605 33.6543C116.605 32.4047 116.29 31.3736 115.661 30.5611C115.032 29.7486 114.161 29.1446 113.049 28.7492C111.937 28.3321 110.647 28.1235 109.179 28.1235H101.849V49.999H109.652C111.287 49.999 112.724 49.7818 113.961 49.3473C115.199 48.9128 116.154 48.2362 116.825 47.3177C117.516 46.4 117.862 45.223 117.863 43.7865C117.863 42.6994 117.632 41.7704 117.17 40.9996ZM106.347 31.6873H108.77C109.757 31.6873 110.533 31.9046 111.098 32.3391C111.686 32.7736 111.98 33.4093 111.98 34.2461C111.992 34.7456 111.849 35.2367 111.57 35.6526C111.305 36.0592 110.921 36.3754 110.469 36.5585C109.929 36.7787 109.348 36.8852 108.763 36.8714H106.347V31.6873ZM112.703 45.0626C112.352 45.5529 111.858 45.9238 111.287 46.125C110.627 46.3405 109.937 46.4458 109.242 46.4365H106.347V40.1249H109.242C109.773 40.1205 110.302 40.1835 110.817 40.3126C111.273 40.4052 111.703 40.5971 112.076 40.8745C112.443 41.1138 112.737 41.4489 112.925 41.843C113.146 42.2671 113.255 42.7406 113.24 43.2182C113.239 43.9681 113.06 44.5829 112.703 45.0626Z" fill="white"></path> <path d="M124.245 42.062L121.036 44.3119C121.541 45.3657 122.222 46.3273 123.049 47.1561C123.915 48.035 124.939 48.745 126.068 49.2496C127.261 49.7535 128.546 50.0086 129.843 49.9991C130.817 50.0042 131.785 49.846 132.705 49.5311C133.603 49.2524 134.445 48.8186 135.191 48.2498C135.946 47.6609 136.553 46.9052 136.963 46.0426C137.373 45.1801 137.575 44.2344 137.553 43.2808C137.571 42.4343 137.41 41.5934 137.082 40.8119C136.803 40.1048 136.373 39.4655 135.824 38.9375C135.297 38.394 134.692 37.9306 134.03 37.5623C133.379 37.1871 132.694 36.8733 131.985 36.6251C131.041 36.3162 130.117 35.951 129.217 35.5314C128.482 35.156 127.937 34.7706 127.581 34.3752C127.233 33.9778 127.043 33.468 127.047 32.9414C127.046 32.6736 127.105 32.4089 127.218 32.1659C127.331 31.923 127.497 31.7076 127.703 31.5349C128.14 31.1178 128.801 30.9096 129.684 30.9105C130.306 30.8992 130.921 31.0384 131.477 31.3159C132.002 31.5663 132.472 31.9166 132.862 32.347C133.282 32.7644 133.642 33.2378 133.931 33.7534L137.455 31.8164C137.042 30.9977 136.501 30.2497 135.851 29.6005C135.134 28.8389 134.266 28.2323 133.303 27.8186C132.296 27.3397 131.09 27.1003 129.684 27.1003C128.409 27.0816 127.145 27.335 125.977 27.8433C124.929 28.2885 124.025 29.013 123.366 29.9368C122.736 30.8336 122.421 31.9068 122.422 33.1564C122.422 34.1992 122.621 35.0952 123.019 35.8443C123.405 36.5556 123.918 37.1908 124.534 37.7187C125.121 38.2082 125.763 38.6298 126.447 38.9753C127.14 39.2864 127.748 39.5362 128.272 39.7248C129.257 40.1002 130.086 40.4544 130.758 40.7872C131.448 41.1 131.962 41.4646 132.299 41.8808C132.655 42.2979 132.833 42.8502 132.833 43.5376C132.833 44.3284 132.55 44.9532 131.984 45.412C131.417 45.8709 130.684 46.1003 129.782 46.1003C129.028 46.1054 128.285 45.9339 127.611 45.5997C126.912 45.2445 126.283 44.7667 125.755 44.1893C125.175 43.537 124.669 42.8237 124.245 42.062Z" fill="white"></path> <path d="M141.594 47.499C141.591 47.8239 141.654 48.146 141.778 48.4465C141.902 48.7471 142.085 49.0201 142.317 49.2496C142.558 49.4936 142.847 49.686 143.166 49.8149C143.486 49.9438 143.828 50.0065 144.172 49.9992C144.51 50.0068 144.845 49.9474 145.159 49.8244C145.473 49.7014 145.759 49.5174 146 49.2831C146.242 49.0488 146.433 48.7689 146.564 48.46C146.695 48.151 146.763 47.8192 146.763 47.484C146.763 47.1488 146.695 46.817 146.564 46.5081C146.433 46.1991 146.242 45.9193 146 45.685C145.759 45.4507 145.473 45.2666 145.159 45.1437C144.845 45.0207 144.51 44.9613 144.172 44.9689C143.828 44.9613 143.485 45.0238 143.166 45.1527C142.847 45.2817 142.558 45.4742 142.317 45.7184C142.08 45.9504 141.894 46.2281 141.769 46.5343C141.645 46.8406 141.585 47.1689 141.594 47.499Z" fill="white"></path> <path d="M87.7223 28.1118L76.5557 49.999H81.62L83.9205 45.0314H91.473L93.7945 49.999H98.8916C95.1698 42.7037 91.4467 35.408 87.7223 28.1118ZM84.9664 41.5002L87.7223 35.2185L90.4546 41.5002H84.9664Z" fill="white"></path> </g> <defs> <clipPath id="clip0_1111_24882"> <rect width="147" height="50" fill="white"></rect> </clipPath> </defs> </svg> 