<?xml version="1.0" encoding="UTF-8"?> <svg xmlns="http://www.w3.org/2000/svg" width="180" height="106" viewBox="0 0 180 106" fill="none"> <g clip-path="url(#clip0_918_11469)"> <path d="M3.44934 89.5497V103.328C3.44934 103.495 3.44934 103.667 3.43206 103.829C3.32838 104.794 2.70917 105.364 1.77029 105.364C0.831411 105.364 0.174776 104.794 0.0739756 103.82C0.0595756 103.673 0.0595703 103.529 0.0595703 103.382C0.0595703 97.821 0.0595759 92.2626 0.0653359 86.6985C0.0653359 86.3558 0.0883738 85.9958 0.189174 85.6703C0.690294 84.0806 2.70054 83.6313 3.91878 84.8294C4.15494 85.0598 4.34789 85.3449 4.54373 85.6127C7.90469 90.1977 11.2599 94.7826 14.6151 99.3705C14.6929 99.477 14.7735 99.5807 14.9377 99.6671V85.8921C14.9377 85.031 15.3092 84.4722 16.0292 84.2332C17.1351 83.8646 18.1777 84.5471 18.2698 85.702C18.2785 85.8143 18.2785 85.9238 18.2785 86.0361C18.2785 91.6895 18.2785 97.3372 18.2698 102.991C18.2698 103.385 18.218 103.809 18.0682 104.169C17.6045 105.292 16.2135 105.721 15.1623 105.047C14.7764 104.802 14.4394 104.442 14.1629 104.074C10.9028 99.6239 7.65701 95.1686 4.40837 90.7103C4.11749 90.3071 3.82086 89.9097 3.52998 89.5094L3.4407 89.5353L3.44934 89.5439V89.5497ZM131.923 93.933C135.163 91.9775 135.348 87.5654 132.275 85.4658C131.082 84.6508 129.734 84.3254 128.306 84.3167C125.846 84.3052 123.381 84.3081 120.922 84.3167C119.816 84.3167 119.153 84.9993 119.153 86.1081V103.426C119.153 104.506 119.821 105.217 120.858 105.217C123.554 105.226 126.253 105.237 128.948 105.208C130.431 105.191 131.82 104.788 133.055 103.932C136.18 101.761 136.235 97.2566 133.153 95.0822C132.646 94.725 132.064 94.486 131.503 94.1865C131.632 94.1087 131.782 94.0223 131.932 93.933H131.923ZM122.575 102.173C122.575 100.116 122.581 98.0543 122.569 95.998C122.569 95.7071 122.641 95.6178 122.943 95.6207C124.611 95.6351 126.278 95.6265 127.946 95.6294C128.94 95.6294 129.887 95.8252 130.693 96.453C131.722 97.2508 132.128 98.3308 131.941 99.598C131.748 100.891 130.976 101.775 129.763 102.225C129.308 102.392 128.807 102.507 128.329 102.515C126.494 102.55 124.66 102.533 122.822 102.533C122.759 102.533 122.693 102.521 122.578 102.507V102.176L122.575 102.173ZM122.716 87.0009C124.453 87.0038 126.186 86.9577 127.914 87.0354C129.181 87.0902 130.224 87.6662 130.771 88.8873C131.503 90.5174 130.63 92.349 128.856 92.8847C128.401 93.023 127.914 93.0978 127.442 93.1065C125.913 93.1353 124.378 93.118 122.843 93.118C122.765 93.118 122.693 93.1065 122.595 93.0978V87.0383C122.65 87.021 122.681 87.0095 122.71 87.0095V87.0009H122.716ZM73.105 103.307C73.105 104.572 73.7473 105.214 75.0001 105.214H79.9681C81.1028 105.214 82.2231 105.093 83.3232 104.828C87.6864 103.768 90.9812 100.448 91.514 96.0642C91.9114 92.781 91.0388 89.8895 88.6772 87.5366C86.4826 85.3478 83.7351 84.4118 80.6938 84.3225C78.8045 84.2678 76.9153 84.3052 75.0231 84.3052C73.7329 84.3052 73.1108 84.9359 73.1079 86.2262V103.307H73.105ZM82.4737 87.5481C86.1025 88.4063 88.4554 91.629 88.1472 95.3442C87.8477 98.9529 85.2125 101.744 81.6125 102.106C80.0055 102.271 78.3725 102.202 76.7511 102.222C76.6791 102.222 76.584 102.101 76.538 102.017C76.5034 101.957 76.5293 101.862 76.5293 101.787V87.2658C78.5482 87.3782 80.5239 87.0902 82.4679 87.5481H82.4708H82.4737ZM61.0148 96.9426C61.0522 96.9254 61.0954 96.9081 61.1386 96.8966C63.7018 96.0441 65.2801 94.3305 65.5882 91.6118C65.8762 89.0716 65.0007 86.9865 62.8465 85.5292C61.5044 84.6249 59.9837 84.3023 58.3853 84.3023H51.2372C51.05 84.3023 50.8513 84.3052 50.6727 84.3484C49.8577 84.5356 49.3825 85.1721 49.3825 86.0764V103.561C49.3825 103.639 49.3825 103.719 49.3911 103.797C49.4688 104.488 49.8029 105.001 50.4682 105.249C51.6461 105.689 52.8068 104.909 52.8154 103.65C52.8298 101.738 52.8154 99.8226 52.8212 97.9103V97.4956H53.2071C54.4282 97.4956 55.6464 97.5042 56.8676 97.4927C57.121 97.4927 57.2708 97.5734 57.4205 97.775C59.065 100.021 60.7239 102.259 62.3828 104.494C62.521 104.681 62.6794 104.866 62.858 105.01C63.8746 105.802 65.2743 105.231 65.4586 103.964C65.5536 103.322 65.257 102.815 64.897 102.331C63.65 100.652 62.4029 98.9702 61.1559 97.2969C61.0839 97.199 61.0177 97.0982 60.9514 97.0002C60.9889 96.9657 61.0061 96.9484 61.0234 96.9398H61.0177L61.0148 96.9426ZM52.8298 87.2284C52.9249 87.2198 53.017 87.2025 53.1121 87.2025C54.7652 87.2025 56.4241 87.1996 58.0801 87.2025C59.0794 87.2054 60.0183 87.4329 60.8132 88.0636C62.0343 89.0284 62.4087 90.3302 62.1293 91.8105C61.8644 93.2246 60.9716 94.1346 59.6151 94.5522C59.1082 94.7078 58.5639 94.7884 58.034 94.797C56.3809 94.8258 54.722 94.8086 53.066 94.8086C52.9969 94.8086 52.9335 94.7999 52.8269 94.7913V87.2226H52.8298V87.2284ZM30.7085 87.2889H40.4113C41.3069 87.2889 41.8973 86.6812 41.9031 85.7855C41.906 84.9186 41.3386 84.3167 40.4602 84.3167C36.48 84.3081 32.4941 84.3081 28.5111 84.3167C27.5089 84.3167 26.8321 85.0194 26.8263 86.0217C26.8205 91.8422 26.8205 97.6569 26.8263 103.477C26.8263 104.531 27.5233 105.217 28.586 105.217C32.6266 105.22 36.6644 105.22 40.705 105.217C41.7476 105.217 42.4157 104.324 42.1565 103.319C41.9722 102.608 41.474 102.239 40.6647 102.239H30.697C30.5559 102.239 30.4177 102.227 30.2852 102.219V95.7849H30.7431C33.4733 95.7849 36.2036 95.7878 38.9338 95.7849C40.034 95.7849 40.6733 94.8921 40.3306 93.8726C40.1348 93.2822 39.6625 92.9855 38.9079 92.9826H30.2765V87.2946H30.7057L30.7085 87.2889ZM109.007 104.379C111.985 102.579 112.742 98.6966 110.631 96.0729C109.747 94.9756 108.584 94.2383 107.319 93.6767C106.309 93.2274 105.263 92.8588 104.244 92.4297C103.521 92.1244 102.827 91.7615 102.251 91.2086C101.024 90.0249 101.243 88.2249 102.717 87.3724C102.973 87.2226 103.261 87.093 103.549 87.0239C105.41 86.5775 107.115 86.9519 108.679 88.0406C108.926 88.2134 109.18 88.3833 109.453 88.5042C110.269 88.8671 111.15 88.4265 111.377 87.5654C111.556 86.8799 111.282 86.2636 110.562 85.7366C109.278 84.7977 107.832 84.262 106.26 84.0834C104.399 83.8703 102.596 84.0316 100.906 84.9186C98.7629 86.0447 97.6887 88.0866 98.0055 90.477C98.2071 91.9862 99.074 93.1007 100.255 93.9993C101.361 94.8345 102.642 95.301 103.915 95.7935C105.05 96.2342 106.173 96.7209 107.138 97.4898C107.855 98.0601 108.299 98.783 108.33 99.7218C108.373 101.041 107.461 102.17 106.029 102.515C104.5 102.884 103.017 102.631 101.614 101.988C100.888 101.654 100.229 101.179 99.5521 100.741C98.8205 100.269 97.9162 100.364 97.4352 100.989C96.9428 101.628 97.058 102.507 97.7175 103.097C97.9277 103.282 98.1466 103.457 98.3684 103.624C100.186 104.969 102.251 105.502 104.48 105.511C106.087 105.528 107.616 105.223 109.01 104.385V104.376L109.007 104.379ZM148.328 85.3074C148.143 85.5868 147.994 85.8892 147.861 86.2002C145.736 91.1164 143.613 96.0354 141.502 100.954C141.142 101.795 140.765 102.634 140.477 103.503C140.223 104.258 140.598 105.004 141.277 105.332C142.021 105.695 142.821 105.516 143.314 104.848C143.486 104.618 143.619 104.35 143.734 104.085C144.253 102.873 144.759 101.654 145.261 100.433C145.356 100.206 145.468 100.111 145.724 100.116C148.691 100.125 151.657 100.125 154.621 100.116C154.851 100.116 154.978 100.177 155.07 100.404C155.51 101.482 155.968 102.547 156.432 103.616C156.616 104.036 156.786 104.468 157.045 104.842C157.475 105.465 158.267 105.669 158.995 105.413C159.646 105.185 160.113 104.563 160.058 103.826C160.023 103.368 159.888 102.901 159.707 102.475C157.852 98.1263 155.974 93.7833 154.105 89.4374C153.569 88.1932 153.045 86.9462 152.489 85.7164C152.069 84.7919 151.337 84.2879 150.283 84.2764C149.465 84.2793 148.797 84.6105 148.333 85.3046H148.331L148.328 85.3074ZM146.441 97.3545C147.685 94.3506 148.918 91.3727 150.148 88.3977C150.177 88.3948 150.203 88.389 150.234 88.3862C151.455 91.3612 152.677 94.3305 153.921 97.3574H146.441V97.3545ZM170.844 93.717C169.006 90.909 167.166 88.1039 165.32 85.2988C165.179 85.0857 165.023 84.8697 164.836 84.7026C163.877 83.8444 162.353 84.3254 162.085 85.5695C161.962 86.1311 162.14 86.6236 162.454 87.0902C164.623 90.3388 166.78 93.5903 168.951 96.8361C169.153 97.1356 169.251 97.4322 169.248 97.7951C169.231 99.7881 169.237 101.781 169.248 103.768C169.257 105.021 170.354 105.796 171.546 105.418C172.261 105.191 172.678 104.575 172.681 103.705C172.687 101.712 172.69 99.719 172.681 97.7318C172.681 97.4265 172.753 97.1759 172.926 96.9225C175.103 93.6825 177.275 90.4396 179.443 87.191C179.61 86.9433 179.769 86.6726 179.849 86.3903C180.034 85.7481 179.962 85.1318 179.426 84.6681C178.913 84.2274 178.294 84.141 177.704 84.4406C177.381 84.6047 177.082 84.8898 176.88 85.1951C175.636 87.0556 174.421 88.9334 173.199 90.8054C172.5 91.8738 171.805 92.9394 171.083 94.0454C170.993 93.9158 170.918 93.8236 170.855 93.7228H170.846L170.844 93.717Z" fill="white"></path> <path d="M109.783 2.93878C105.909 1.70326 102.182 2.22166 98.735 3.08278C97.4448 3.40534 96.1344 3.79414 94.8672 4.16854C94.4553 4.2895 94.0492 4.41046 93.6489 4.52854C91.9785 5.01526 90.3628 5.45014 88.7443 5.73238C86.95 6.04342 85.1068 5.7871 82.9267 5.4847C82.4918 5.42422 82.0454 5.36374 81.5817 5.30326C78.9926 4.96918 75.9024 4.71862 73.0396 6.25366C70.2691 7.73686 68.3913 10.0005 66.96 12.3852C65.8339 14.2601 64.918 16.3423 64.0771 18.246C63.8697 18.7183 63.6652 19.1791 63.4636 19.6255C63.1382 20.3484 62.7724 21.1145 62.3923 21.9065C61.5081 23.7497 60.5548 25.7455 59.8752 27.6895C58.8729 30.5551 58.2912 33.7231 59.2329 37.0063C60.2006 40.3759 62.5766 42.7231 64.9728 44.6181C65.9174 45.3641 66.9225 46.0841 67.8873 46.7724C68.1465 46.9596 68.4057 47.141 68.6563 47.3225C69.8688 48.1951 70.9948 49.0389 71.9884 49.9404C73.1664 51.0117 74.2694 52.3077 75.4156 53.7362C75.7036 54.0933 75.9945 54.462 76.2912 54.8393C77.1465 55.9193 78.0393 57.0511 78.9552 58.0879C81.4377 60.8988 84.5452 63.5887 88.9862 63.8191C94.4784 64.1042 99.0086 60.9679 102.525 57.4629C104.481 55.5161 106.223 53.3561 107.741 51.3861C111.254 46.8271 115.972 39.5148 118.256 34.1349C121.003 27.6578 121.683 21.5868 120.182 15.6223C118.313 8.20054 114.065 4.3039 109.786 2.93878H109.783Z" stroke="white" stroke-width="2.88"></path> <path d="M83.3242 50.6201C82.9555 50.3119 82.5926 49.9865 82.2442 49.6582C81.959 49.3903 81.6797 49.1225 81.4118 48.8604C81.1958 48.6531 80.9856 48.4515 80.784 48.2556C79.7818 47.4147 78.9811 46.6572 78.3907 46.1215C77.3482 45.4044 76.2797 44.647 75.217 43.8175C74.9894 43.639 74.7619 43.4576 74.5344 43.2704C73.6819 42.5705 72.8438 41.8102 72.0864 41.0067C70.1424 38.9388 68.521 36.4188 68.0371 33.2854C67.6051 24.5849 72.0432 17.0768 77.7456 13.9692C81.7891 11.766 86.1984 13.1283 93.6317 11.3888C99.1296 10.0985 104.648 9.02715 108.282 11.9187C114.828 17.1315 112.769 26.215 111.686 30.3881C109.08 40.4278 102.563 47.0143 99.9072 49.3759C99.4608 49.7705 99.1238 50.047 98.9338 50.2025" stroke="white" stroke-width="2.88"></path> <path d="M84.8017 43.1668C80.09 40.8657 76.8442 36.0273 76.8442 30.4314C76.8442 22.6094 83.0161 18.537 91.8807 17.6414C100.745 16.7486 105.12 19.6833 105.12 27.5054C105.12 32.9975 102.044 40.6871 97.4708 43.0372" stroke="white" stroke-width="2.88"></path> <path fill-rule="evenodd" clip-rule="evenodd" d="M98.1936 40.9378L98.3204 41.6895H98.3175L98.3895 42.0869L101.154 56.9074C100.457 57.5727 99.9591 57.9355 98.7322 58.9003L96.5175 46.9973L96.2497 45.4421L95.7226 42.4239H95.7111L95.7053 42.3864H86.377L83.2321 60.0754C82.3594 59.8219 81.6913 58.5605 80.8474 58.2235C82.2989 50.3496 82.1405 51.3202 82.1405 51.1387L82.2874 50.3151L82.2701 50.3266L82.8951 46.7611L82.9066 46.7525L83.6986 42.2136L83.785 41.7125H83.7793L84.0097 40.4021V37.5451L83.8916 37.5567H82.5725C81.8324 37.5567 81.2276 36.9519 81.2276 36.2117C81.2276 35.4715 81.8324 34.8696 82.5725 34.8696H83.9175V32.4619H82.5725C81.8324 32.4619 81.2276 31.8629 81.2276 31.1199C81.2276 30.3768 81.8324 29.7778 82.5725 29.7778H84.0068C84.0673 29.4149 84.1537 29.0607 84.2631 28.7237C84.2487 28.7179 84.2343 28.7122 84.2199 28.7064L84.2573 28.6949C84.4417 28.0699 84.865 27.1887 85.5677 26.3477L85.5735 26.3535C85.8039 26.0712 86.0717 25.8063 86.3482 25.5615L86.3425 25.5499C87.1892 24.804 88.3009 24.1791 89.7178 23.9314V21.9384C89.7956 21.2703 90.3658 20.7461 91.0541 20.7461C91.7943 20.7461 92.3962 21.3509 92.3962 22.0911V23.9285C92.7044 23.9832 92.9981 24.0523 93.2775 24.1387C93.3149 24.1503 93.3524 24.1647 93.3898 24.1791C94.346 24.4901 95.1293 24.9855 95.7572 25.5528V25.5615C95.8781 25.6709 96.002 25.7861 96.1201 25.9042C97.0532 26.869 97.5802 27.9605 97.7847 28.6978L97.9431 28.6805C97.9085 28.6978 97.874 28.7093 97.8394 28.7237C97.9546 29.0635 98.0353 29.4149 98.0957 29.7778H99.5329C100.273 29.7778 100.878 30.3768 100.878 31.1199C100.878 31.8629 100.273 32.4619 99.5329 32.4619H98.1908V34.8696H99.5329C100.273 34.8696 100.878 35.4687 100.878 36.2117C100.878 36.9547 100.273 37.5567 99.5329 37.5567H98.6084H98.1936V40.9291V40.9378ZM95.5066 34.8783V32.4706H86.5959V34.8783H95.5066ZM91.0541 26.4773C88.9921 26.4773 87.2612 27.8827 86.7514 29.7864H95.3511C94.8413 27.8827 93.1133 26.4773 91.0541 26.4773ZM95.5066 39.7368V37.5653H86.5959V39.7368H95.5066Z" fill="white"></path> </g> <defs> <clipPath id="clip0_918_11469"> <rect width="180" height="104.544" fill="white" transform="translate(0 0.728027)"></rect> </clipPath> </defs> </svg> 