<?xml version="1.0" encoding="UTF-8"?> <svg xmlns="http://www.w3.org/2000/svg" width="122" height="123" viewBox="0 0 122 123" fill="none"> <path fill-rule="evenodd" clip-rule="evenodd" d="M61 122.677C94.6894 122.677 122 95.3661 122 61.6768C122 27.9874 94.6894 0.676758 61 0.676758C27.3106 0.676758 0 27.9874 0 61.6768C0 95.3661 27.3106 122.677 61 122.677ZM60.9987 94.2101C78.9664 94.2101 93.5321 79.6445 93.5321 61.6768C93.5321 43.7091 78.9664 29.1435 60.9987 29.1435C43.031 29.1435 28.4654 43.7091 28.4654 61.6768C28.4654 79.6445 43.031 94.2101 60.9987 94.2101Z" fill="#0E0E0E"></path> <path d="M76.0151 71.8306C74.1417 77.2108 68.5214 83.5036 60.9796 83.5036C53.4858 83.5036 47.8175 77.2108 45.9921 71.8306C42.8217 62.7517 56.7224 48.0853 60.9796 39.8503C65.4657 48.2887 79.1375 62.7517 76.0151 71.8306Z" fill="#0E0E0E"></path> </svg> 