<?xml version="1.0" encoding="UTF-8"?> <svg xmlns="http://www.w3.org/2000/svg" width="212" height="38" viewBox="0 0 212 38" fill="none"> <path d="M143.653 26.3809H126.769V25.8698H143.653V26.3809ZM45.8689 1.61291H41.2469V1.78757H41.8072C42.5422 1.78757 43.0333 2.27756 43.0333 3.01255V24.7234C43.0333 25.4584 42.5433 25.9496 41.8072 25.9496H41.2469V26.1242H46.815V25.9496H46.2546C45.5196 25.9496 45.0285 25.4596 45.0285 24.7234V1.92706H45.5888C48.6706 2.03139 52.5577 3.39704 52.5577 8.54547C52.5577 12.8522 50.0362 14.9892 46.3589 14.9892H45.8689V15.3045H46.3238C51.1217 15.3045 54.9385 12.6084 54.9385 8.19615C54.9385 4.09921 51.9973 1.61291 45.8689 1.61291ZM125.159 12.3494C125.159 6.7121 129.641 1.61291 135.949 1.61291C141.37 1.61291 145.262 5.39804 145.262 10.632C145.262 15.866 141.627 19.9231 136.815 21.0309V21.0801H136.599C135.868 21.2325 135.112 21.3146 134.338 21.3146C129.158 21.3146 125.159 17.6912 125.159 12.3494ZM126.366 11.088C126.366 15.8742 130.117 19.8012 134.629 20.3369C134.63 20.3146 134.635 20.2947 134.635 20.2713V7.75187C134.635 7.32752 134.352 7.04502 133.928 7.04502H133.604V6.94421H136.815V7.04502H136.492C136.067 7.04502 135.785 7.32752 135.785 7.75187V20.2713C135.785 20.3158 135.789 20.3568 135.795 20.3979C136.941 20.3826 138.031 20.1505 139.025 19.7356C142.109 18.4508 144.268 15.4417 144.268 11.918C144.268 7.05908 140.135 2.55069 134.847 2.55069C129.988 2.55069 126.365 6.38857 126.365 11.0869L126.366 11.088ZM77.246 24.7246V4.06404L97.9768 26.6857H98.257V3.01372C98.257 2.27874 98.747 1.78874 99.4832 1.78874H100.044V1.61408H95.5258V1.78874H96.0861C96.821 1.78874 97.3122 2.27874 97.3122 3.01372V23.1491L77.6317 1.61291H74.5147V1.78757H74.7245C75.4595 1.78757 76.3 2.27756 76.3 3.71354V24.7246C76.3 25.4596 75.81 25.9507 75.0739 25.9507H74.5136V26.1254H79.0313V25.9507H78.471C77.736 25.9507 77.246 25.4607 77.246 24.7246ZM67.1602 25.9507H66.5998C65.8648 25.9507 65.3749 25.4607 65.3749 24.7246V3.01372C65.3749 2.27874 65.8648 1.78874 66.5998 1.78874H67.1602V1.61408H61.5921V1.78874H62.1524C62.8874 1.78874 63.3785 2.27874 63.3785 3.01372V24.7246C63.3785 25.4596 62.8885 25.9507 62.1524 25.9507H61.5921V26.1254H67.1602V25.9507ZM111.67 1.61291H107.048V1.78757H107.608C108.343 1.78757 108.834 2.27756 108.834 3.01255V24.7234C108.834 25.4584 108.344 25.9496 107.608 25.9496H107.048V26.1242H112.616V25.9496H112.055C111.32 25.9496 110.829 25.4596 110.829 24.7234V1.92706H111.39C114.471 2.03139 118.358 3.39704 118.358 8.54547C118.358 12.8522 115.837 14.9892 112.16 14.9892H111.67V15.3045H112.125C116.922 15.3045 120.739 12.6084 120.739 8.19615C120.739 4.09921 117.798 1.61291 111.67 1.61291ZM184.12 1.78757H184.681C185.416 1.78757 185.907 2.27756 185.907 3.01255V23.1479L166.226 1.61173H163.109V1.7864H163.319C164.054 1.7864 164.895 2.27639 164.895 3.71237V24.7234C164.895 25.4584 164.405 25.9496 163.669 25.9496H163.108V26.1242H167.626V25.9496H167.066C166.331 25.9496 165.84 25.4596 165.84 24.7234V4.06287L186.57 26.6845H186.851V3.01255C186.851 2.27756 187.341 1.78757 188.077 1.78757H188.637V1.61291H184.119V1.78757H184.12ZM210.911 1.61291H194.978L194.417 5.70985H194.557L195.502 3.53888C195.852 2.73356 196.377 2.38306 197.463 2.38306H201.945V24.7246C201.945 25.4596 201.455 25.9507 200.719 25.9507H200.159V26.1254H205.727V25.9507H205.167C204.432 25.9507 203.941 25.4607 203.941 24.7246V2.38306H208.423C209.509 2.38306 210.069 2.80389 210.384 3.53888L211.329 5.70985H211.47L210.909 1.61291H210.911ZM150.188 1.78757H150.748C151.483 1.78757 151.974 2.27756 151.974 3.01255V24.7234C151.974 25.4584 151.484 25.9496 150.748 25.9496H150.188V26.1242H155.756V25.9496H155.196C154.461 25.9496 153.97 25.4596 153.97 24.7234V3.01255C153.97 2.27756 154.46 1.78757 155.196 1.78757H155.756V1.61291H150.188V1.78757ZM44.2267 33.7636C44.2267 34.4904 43.6265 35.0836 42.8997 35.0836H41.7579V37.5816H41.2469V32.4355H42.8997C43.6265 32.4355 44.2267 33.0286 44.2267 33.7625V33.7636ZM43.7824 33.7636C43.7824 33.1482 43.2854 32.6442 42.67 32.6442H41.7579V34.8761H42.67C43.2854 34.8761 43.7824 34.372 43.7824 33.7636ZM46.2874 32.4285V37.5745H49.0527V37.3671H46.7985V35.1058H48.4596V34.8983H46.7985V32.6371H49.0527V32.4296H46.2874V32.4285ZM54.5083 37.4855V37.5593H54.071V37.4855C54.071 36.3437 53.3665 35.3649 52.41 35.0906H51.8391V37.5816H51.328V32.4355H52.9809C53.7077 32.4355 54.3078 33.0357 54.3078 33.7625C54.3078 34.4892 53.7217 35.0672 53.0102 35.0894C53.8999 35.5196 54.5083 36.4316 54.5083 37.4843V37.4855ZM52.7511 34.8761C53.3666 34.8761 53.8636 34.3791 53.8636 33.7636C53.8636 33.1482 53.3666 32.6512 52.7511 32.6512H51.8391V34.8749H52.7511V34.8761ZM60.8383 32.4296L58.9921 36.9228L56.9688 32.4296H56.405L56.9618 33.6605L56.6945 37.5757H56.909L57.1388 34.0614L58.726 37.5757H58.9487L59.1116 37.183L60.6167 33.5433L61.0388 37.5769H61.5498L61.0083 32.4308H60.8383V32.4296ZM65.6855 32.4296L63.5872 37.5675H63.8099L65.6339 33.1189C66.2048 34.6018 66.7827 36.0846 67.3618 37.5675H67.9104C67.2434 35.8549 66.5752 34.1423 65.9152 32.4296H65.6855ZM73.1139 36.8489L70.1036 32.4296H69.5327L69.9184 32.9935V37.5757H70.1259V33.3053L73.0318 37.5757H73.3214V32.4296H73.1139V36.8489ZM75.8487 32.4296V37.5757H78.614V37.3682H76.3598V35.107H78.0209V34.8995H76.3598V32.6383H78.614V32.4308H75.8487V32.4296ZM84.2255 36.8489L81.2152 32.4296H80.6443L81.03 32.9935V37.5757H81.2374V33.3053L84.1434 37.5757H84.4329V32.4296H84.2255V36.8489ZM88.2732 32.4449H86.5007V32.6524H88.2732V37.5828H88.7842V32.6524H90.5567V32.4449H88.2732ZM99.7259 32.4449C100.379 32.4449 100.972 32.7567 101.379 33.2525L101.608 33.0228C101.127 32.534 100.46 32.2374 99.7259 32.2374C98.25 32.2374 97.0567 33.4307 97.0567 34.9066C97.0567 36.3824 98.25 37.5757 99.7259 37.5757C100.46 37.5757 101.127 37.2791 101.608 36.7974L101.379 36.5606C100.971 37.0576 100.378 37.3682 99.7259 37.3682C98.495 37.3682 97.4939 36.264 97.4939 34.9066C97.4939 33.5491 98.495 32.4449 99.7259 32.4449ZM108.555 34.9136C108.555 36.3894 107.362 37.5828 105.886 37.5828C104.41 37.5828 103.217 36.3894 103.217 34.9136C103.217 33.4378 104.41 32.2444 105.886 32.2444C107.362 32.2444 108.555 33.446 108.555 34.9136ZM108.118 34.9136C108.118 33.5573 107.117 32.4601 105.886 32.4601C104.655 32.4601 103.654 33.5573 103.654 34.9136C103.654 36.2699 104.655 37.3753 105.886 37.3753C107.117 37.3753 108.118 36.2781 108.118 34.9136ZM112.188 34.617C111.091 33.9277 110.979 33.6452 110.979 33.3498C110.979 33.0544 111.254 32.6524 111.773 32.6524C112.292 32.6524 112.596 33.0744 112.64 33.2525H112.729L112.722 33.0298C112.522 32.5926 112.048 32.4144 111.61 32.4437C110.921 32.4953 110.364 33.1998 110.602 33.875C110.847 34.5795 111.588 34.7647 112.234 35.3508C113.101 36.1292 112.715 37.4116 111.663 37.3753C110.869 37.36 110.402 36.5594 110.402 36.4633H110.18C110.521 37.3014 111.248 37.5828 111.692 37.5828C113.271 37.6121 113.82 35.5513 112.189 34.617H112.188ZM119.49 32.4296L117.643 36.9228L115.619 32.4296H115.055L115.612 33.6605L115.345 37.5757H115.559L115.789 34.0614L117.376 37.5757H117.599L117.762 37.183L119.267 33.5433L119.689 37.5769H120.2L119.658 32.4308H119.488L119.49 32.4296ZM122.543 32.4296V37.5757H125.309V37.3682H123.054V35.107H124.715V34.8995H123.054V32.6383H125.309V32.4308H122.543V32.4296ZM129.149 32.4449H127.376V32.6524H129.149V37.5828H129.66V32.6524H131.432V32.4449H129.149ZM133.485 37.5757H133.996V32.4296H133.485V37.5757ZM138.956 32.4449C139.609 32.4449 140.202 32.7567 140.608 33.2525L140.838 33.0228C140.356 32.534 139.689 32.2374 138.956 32.2374C137.48 32.2374 136.286 33.4307 136.286 34.9066C136.286 36.3824 137.48 37.5757 138.956 37.5757C139.689 37.5757 140.358 37.2791 140.838 36.7974L140.608 36.5606C140.201 37.0576 139.607 37.3682 138.956 37.3682C137.725 37.3682 136.724 36.264 136.724 34.9066C136.724 33.5491 137.725 32.4449 138.956 32.4449ZM144.574 34.617C143.477 33.9277 143.366 33.6452 143.366 33.3498C143.366 33.0544 143.64 32.6524 144.159 32.6524C144.678 32.6524 144.982 33.0744 145.027 33.2525H145.116L145.109 33.0298C144.908 32.5926 144.435 32.4144 143.996 32.4437C143.307 32.4953 142.75 33.1998 142.988 33.875C143.233 34.5795 143.974 34.7647 144.62 35.3508C145.487 36.1292 145.102 37.4116 144.049 37.3753C143.255 37.36 142.789 36.5594 142.789 36.4633H142.566C142.907 37.3014 143.634 37.5828 144.078 37.5828C145.657 37.6121 146.206 35.5513 144.575 34.617H144.574ZM28.1308 37.3682H2.85402V36.3285H28.1308V37.3682ZM3.13655 37.0857H27.8483V36.611H3.13655V37.0857ZM14.2012 29.8671C6.24526 29.8671 0.469727 24.2264 0.469727 16.4533C0.469727 12.3341 2.11901 8.26062 4.99448 5.27847C8.01766 2.14393 12.1334 0.417236 16.5855 0.417236C24.6563 0.417236 30.5151 6.09199 30.5151 13.9096C30.5151 21.1903 25.2635 27.6938 18.0098 29.4158V29.5178H17.5643C16.4565 29.7488 15.3242 29.8648 14.2012 29.8648V29.8671ZM16.5855 0.700914C12.2119 0.700914 8.16774 2.39713 5.19848 5.4754C2.37341 8.4048 0.753397 12.4068 0.753397 16.4533C0.753397 24.0623 6.4094 29.5846 14.2024 29.5846C15.3113 29.5846 16.4273 29.4686 17.521 29.24L17.5503 29.2365H17.7285V29.1919L17.8374 29.1662C25.0197 27.5133 30.2326 21.0965 30.2326 13.9096C30.2326 6.25493 24.4934 0.69974 16.5855 0.69974V0.700914ZM16.2385 28.5144L16.2209 28.3925C16.2115 28.3257 16.2034 28.2565 16.2034 28.1838V9.64971C16.2034 9.16206 16.4284 8.78343 16.8 8.5947H14.1859C14.5564 8.78343 14.7826 9.16206 14.7826 9.64971V28.1838C14.7826 28.212 14.7803 28.2377 14.7768 28.2647L14.7615 28.4382L14.6161 28.4206C7.68593 27.5977 2.25852 21.5209 2.25852 14.5883C2.25852 7.65575 7.83596 1.81101 14.9561 1.81101C22.5932 1.81101 29.044 8.22662 29.044 15.8203C29.044 20.9441 25.9633 25.5369 21.1959 27.5239C19.6708 28.1592 18.0449 28.4921 16.3616 28.5144H16.2374H16.2385ZM17.3908 8.7471C16.841 8.7471 16.4847 9.10228 16.4847 9.65206V28.1862C16.4847 28.2014 16.4847 28.2155 16.4859 28.2307C18.0871 28.1944 19.6345 27.8697 21.0869 27.2636C25.7488 25.3212 28.7614 20.8304 28.7614 15.8215C28.7614 8.38136 22.4396 2.0947 14.9549 2.0947C7.99307 2.0947 2.5387 7.58307 2.5387 14.5895C2.5387 21.5959 7.77974 27.2472 14.4978 28.1229V9.65206C14.4978 9.10228 14.1426 8.7471 13.5928 8.7471H12.9727V8.31571H18.0086V8.7471H17.3897H17.3908Z" fill="white"></path> </svg> 