<?xml version="1.0" encoding="UTF-8"?> <svg xmlns="http://www.w3.org/2000/svg" width="1156" height="651" viewBox="0 0 1156 651" fill="none"> <g clip-path="url(#clip0_1279_16826)"> <rect width="1156" height="650.25" fill="#0E0E0E"></rect> <path d="M951.59 58.2435L944.666 41.9271H941.806L951.59 64.0536L961.374 41.9271H958.514L951.59 58.2435ZM965.001 52.4635C965.001 50.8781 965.342 49.4632 966.025 48.2189C966.727 46.9745 967.681 45.9911 968.885 45.2686C970.089 44.5461 971.454 44.1849 972.979 44.1849C974.524 44.1849 975.889 44.5461 977.073 45.2686C978.277 45.9911 979.22 46.9745 979.903 48.2189C980.605 49.4632 980.956 50.8781 980.956 52.4635C980.956 54.049 980.605 55.4639 979.903 56.7082C979.22 57.9525 978.277 58.9359 977.073 59.6584C975.889 60.3809 974.524 60.7422 972.979 60.7422C971.454 60.7422 970.089 60.3809 968.885 59.6584C967.681 58.9359 966.727 57.9525 966.025 56.7082C965.342 55.4639 965.001 54.049 965.001 52.4635ZM962.292 52.4635C962.292 53.9888 962.553 55.4137 963.075 56.7383C963.616 58.0629 964.369 59.2169 965.332 60.2003C966.296 61.1636 967.43 61.9263 968.734 62.4882C970.039 63.0301 971.454 63.301 972.979 63.301C974.524 63.301 975.939 63.0301 977.224 62.4882C978.528 61.9263 979.662 61.1636 980.625 60.2003C981.589 59.2169 982.331 58.0629 982.853 56.7383C983.395 55.4137 983.666 53.9888 983.666 52.4635C983.666 50.9182 983.395 49.4933 982.853 48.1887C982.331 46.8642 981.589 45.7202 980.625 44.7569C979.662 43.7735 978.528 43.0108 977.224 42.469C975.939 41.907 974.524 41.626 972.979 41.626C971.454 41.626 970.039 41.907 968.734 42.469C967.43 43.0108 966.296 43.7735 965.332 44.7569C964.369 45.7202 963.616 46.8642 963.075 48.1887C962.553 49.4933 962.292 50.9182 962.292 52.4635ZM997.838 41.9271L992.389 51.6808L986.97 41.9271H984.11L991.125 53.9386V63H993.684V53.9085L1000.7 41.9271H997.838ZM1002.26 56.6781H1013.4L1012.5 54.2698H1003.16L1002.26 56.6781ZM1007.77 46.6835L1011.38 55.1729L1011.62 55.775L1014.69 63H1017.55L1007.77 40.8734L997.987 63H1000.85L1003.98 55.5944L1004.22 55.0525L1007.77 46.6835ZM1029.14 41.9271V63H1039.98V60.5917H1031.7V41.9271H1029.14ZM1045.62 56.6781H1056.76L1055.86 54.2698H1046.53L1045.62 56.6781ZM1051.13 46.6835L1054.75 55.1729L1054.99 55.775L1058.06 63H1060.92L1051.13 40.8734L1041.35 63H1044.21L1047.34 55.5944L1047.58 55.0525L1051.13 46.6835ZM1065.5 51.8615H1068.9C1070.16 51.8615 1071.26 51.6808 1072.18 51.3196C1073.12 50.9583 1073.86 50.4265 1074.38 49.7241C1074.9 49.0216 1075.16 48.1787 1075.16 47.1953C1075.16 45.9911 1074.9 45.0077 1074.38 44.2451C1073.86 43.4624 1073.12 42.8804 1072.18 42.4991C1071.26 42.1177 1070.16 41.9271 1068.9 41.9271H1063.48V63H1069.2C1070.57 63 1071.78 62.7792 1072.84 62.3377C1073.93 61.8761 1074.78 61.1937 1075.4 60.2906C1076.04 59.3674 1076.37 58.2134 1076.37 56.8286C1076.37 55.8653 1076.18 55.0324 1075.82 54.33C1075.46 53.6276 1074.95 53.0556 1074.29 52.6141C1073.65 52.1525 1072.89 51.8113 1072.03 51.5905C1071.17 51.3698 1070.22 51.2594 1069.2 51.2594H1065.5V52.6743H1069.2C1069.88 52.6743 1070.51 52.7646 1071.07 52.9452C1071.63 53.1058 1072.11 53.3566 1072.51 53.6978C1072.93 54.039 1073.25 54.4605 1073.48 54.9622C1073.7 55.4639 1073.81 56.0359 1073.81 56.6781C1073.81 57.5411 1073.61 58.2736 1073.2 58.8757C1072.82 59.4778 1072.28 59.9394 1071.58 60.2605C1070.9 60.5816 1070.1 60.7422 1069.2 60.7422H1066.04V44.1849H1068.9C1069.96 44.1849 1070.85 44.4659 1071.55 45.0278C1072.25 45.5697 1072.6 46.3424 1072.6 47.3458C1072.6 48.0081 1072.44 48.5701 1072.12 49.0317C1071.8 49.4933 1071.36 49.8445 1070.8 50.0853C1070.23 50.3261 1069.6 50.4466 1068.9 50.4466H1065.5V51.8615ZM1081.05 56.6179L1079 58.0027C1079.46 58.9259 1080.06 59.7989 1080.78 60.6218C1081.52 61.4245 1082.37 62.0768 1083.34 62.5785C1084.32 63.0602 1085.39 63.301 1086.53 63.301C1087.37 63.301 1088.17 63.1606 1088.94 62.8796C1089.72 62.5986 1090.41 62.1972 1091.01 61.6754C1091.64 61.1536 1092.12 60.5214 1092.46 59.7789C1092.82 59.0363 1093 58.2034 1093 57.2802C1093 56.3169 1092.83 55.494 1092.49 54.8117C1092.15 54.1092 1091.71 53.5172 1091.17 53.0355C1090.64 52.5338 1090.07 52.1224 1089.45 51.8012C1088.83 51.4801 1088.23 51.2192 1087.67 51.0185C1086.45 50.5971 1085.48 50.1756 1084.75 49.7542C1084.05 49.3126 1083.55 48.851 1083.25 48.3694C1082.95 47.8676 1082.8 47.3258 1082.8 46.7437C1082.8 46.0614 1083.06 45.4493 1083.58 44.9074C1084.1 44.3455 1084.93 44.0645 1086.08 44.0645C1086.9 44.0645 1087.59 44.225 1088.15 44.5461C1088.74 44.8673 1089.23 45.2787 1089.63 45.7804C1090.03 46.2822 1090.36 46.7939 1090.62 47.3157L1092.82 46.0514C1092.48 45.3088 1092.01 44.6064 1091.41 43.9441C1090.8 43.2617 1090.07 42.7098 1089.21 42.2883C1088.37 41.8468 1087.37 41.626 1086.23 41.626C1085.04 41.626 1083.99 41.8669 1083.07 42.3485C1082.14 42.8101 1081.42 43.4524 1080.9 44.2752C1080.38 45.0981 1080.12 46.0313 1080.12 47.0749C1080.12 48.0382 1080.3 48.851 1080.66 49.5133C1081.04 50.1756 1081.52 50.7376 1082.1 51.1992C1082.69 51.6407 1083.3 52.012 1083.94 52.313C1084.58 52.594 1085.16 52.8248 1085.69 53.0054C1086.49 53.2864 1087.24 53.6075 1087.94 53.9687C1088.67 54.3099 1089.25 54.7615 1089.69 55.3234C1090.13 55.8854 1090.35 56.638 1090.35 57.5812C1090.35 58.5446 1090.01 59.3373 1089.33 59.9595C1088.65 60.5816 1087.74 60.8927 1086.62 60.8927C1085.78 60.8927 1085.02 60.7121 1084.36 60.3508C1083.7 59.9896 1083.1 59.4878 1082.56 58.8456C1082.03 58.2034 1081.53 57.4608 1081.05 56.6179Z" fill="white"></path> <path d="M57.3824 56.6179L55.3354 58.0027C55.797 58.9259 56.389 59.7989 57.1115 60.6218C57.8541 61.4245 58.707 62.0768 59.6704 62.5785C60.6538 63.0602 61.7174 63.301 62.8614 63.301C63.7043 63.301 64.5071 63.1606 65.2697 62.8796C66.0524 62.5986 66.7448 62.1972 67.3469 61.6754C67.9691 61.1536 68.4507 60.5214 68.7919 59.7789C69.1532 59.0363 69.3338 58.2034 69.3338 57.2802C69.3338 56.3169 69.1632 55.494 68.822 54.8117C68.4809 54.1092 68.0393 53.5172 67.4974 53.0355C66.9756 52.5338 66.4037 52.1224 65.7815 51.8012C65.1594 51.4801 64.5673 51.2192 64.0054 51.0185C62.7811 50.5971 61.8078 50.1756 61.0853 49.7542C60.3828 49.3126 59.8811 48.851 59.5801 48.3694C59.279 47.8676 59.1285 47.3258 59.1285 46.7437C59.1285 46.0614 59.3894 45.4493 59.9112 44.9074C60.433 44.3455 61.2659 44.0645 62.4098 44.0645C63.2327 44.0645 63.9251 44.225 64.487 44.5461C65.069 44.8673 65.5607 45.2787 65.9621 45.7804C66.3635 46.2822 66.6947 46.7939 66.9556 47.3157L69.1532 46.0514C68.812 45.3088 68.3404 44.6064 67.7383 43.9441C67.1362 43.2617 66.4037 42.7098 65.5407 42.2883C64.6978 41.8468 63.7043 41.626 62.5604 41.626C61.3763 41.626 60.3226 41.8669 59.3994 42.3485C58.4762 42.8101 57.7537 43.4524 57.2319 44.2752C56.7101 45.0981 56.4492 46.0313 56.4492 47.0749C56.4492 48.0382 56.6298 48.851 56.9911 49.5133C57.3724 50.1756 57.8541 50.7376 58.4361 51.1992C59.0181 51.6407 59.6302 52.012 60.2724 52.313C60.9147 52.594 61.4967 52.8248 62.0185 53.0054C62.8213 53.2864 63.5739 53.6075 64.2763 53.9687C64.9988 54.3099 65.5808 54.7615 66.0223 55.3234C66.4639 55.8854 66.6846 56.638 66.6846 57.5812C66.6846 58.5446 66.3435 59.3373 65.6611 59.9595C64.9787 60.5816 64.0756 60.8927 62.9517 60.8927C62.1088 60.8927 61.3562 60.7121 60.6939 60.3508C60.0316 59.9896 59.4295 59.4878 58.8877 58.8456C58.3659 58.2034 57.8641 57.4608 57.3824 56.6179ZM74.5073 52.7646H88.9573V50.3562H74.5073V52.7646ZM87.2413 41.9271V63H89.8002V41.9271H87.2413ZM73.0924 41.9271V63H75.6512V41.9271H73.0924ZM96.1173 52.4635C96.1173 50.8781 96.4585 49.4632 97.1409 48.2189C97.8433 46.9745 98.7966 45.9911 100.001 45.2686C101.205 44.5461 102.57 44.1849 104.095 44.1849C105.64 44.1849 107.005 44.5461 108.189 45.2686C109.393 45.9911 110.337 46.9745 111.019 48.2189C111.721 49.4632 112.073 50.8781 112.073 52.4635C112.073 54.049 111.721 55.4639 111.019 56.7082C110.337 57.9525 109.393 58.9359 108.189 59.6584C107.005 60.3809 105.64 60.7422 104.095 60.7422C102.57 60.7422 101.205 60.3809 100.001 59.6584C98.7966 58.9359 97.8433 57.9525 97.1409 56.7082C96.4585 55.4639 96.1173 54.049 96.1173 52.4635ZM93.408 52.4635C93.408 53.9888 93.6689 55.4137 94.1907 56.7383C94.7325 58.0629 95.4852 59.2169 96.4485 60.2003C97.4118 61.1636 98.5457 61.9263 99.8503 62.4882C101.155 63.0301 102.57 63.301 104.095 63.301C105.64 63.301 107.055 63.0301 108.34 62.4882C109.644 61.9263 110.778 61.1636 111.741 60.2003C112.705 59.2169 113.447 58.0629 113.969 56.7383C114.511 55.4137 114.782 53.9888 114.782 52.4635C114.782 50.9182 114.511 49.4933 113.969 48.1887C113.447 46.8642 112.705 45.7202 111.741 44.7569C110.778 43.7735 109.644 43.0108 108.34 42.469C107.055 41.907 105.64 41.626 104.095 41.626C102.57 41.626 101.155 41.907 99.8503 42.469C98.5457 43.0108 97.4118 43.7735 96.4485 44.7569C95.4852 45.7202 94.7325 46.8642 94.1907 48.1887C93.6689 49.4933 93.408 50.9182 93.408 52.4635ZM136.239 57.4307L129.977 40.8734L123.836 57.4307L118.237 41.9271H115.377L123.656 64.0536L129.977 47.677L136.299 64.0536L144.578 41.9271H141.718L136.239 57.4307ZM151.057 52.6141L158.282 63H161.443L153.917 52.6141H151.057ZM147.294 41.9271V63H149.853V41.9271H147.294ZM148.709 44.1849H153.014C153.917 44.1849 154.71 44.3455 155.392 44.6666C156.095 44.9877 156.637 45.4493 157.018 46.0514C157.419 46.6534 157.62 47.386 157.62 48.249C157.62 49.1119 157.419 49.8445 157.018 50.4466C156.637 51.0486 156.095 51.5102 155.392 51.8314C154.71 52.1525 153.917 52.313 153.014 52.313H148.709V54.5708H153.014C154.379 54.5708 155.593 54.32 156.657 53.8182C157.741 53.2964 158.594 52.5639 159.216 51.6206C159.858 50.6573 160.179 49.5334 160.179 48.249C160.179 46.9444 159.858 45.8206 159.216 44.8773C158.594 43.934 157.741 43.2115 156.657 42.7098C155.593 42.188 154.379 41.9271 153.014 41.9271H148.709V44.1849ZM165.555 63H176.181V60.5917H165.555V63ZM165.555 44.3354H176.181V41.9271H165.555V44.3354ZM165.555 52.7646H175.579V50.3562H165.555V52.7646ZM164.14 41.9271V63H166.699V41.9271H164.14ZM182.106 63H192.733V60.5917H182.106V63ZM182.106 44.3354H192.733V41.9271H182.106V44.3354ZM182.106 52.7646H192.131V50.3562H182.106V52.7646ZM180.691 41.9271V63H183.25V41.9271H180.691ZM197.243 41.9271V63H208.08V60.5917H199.801V41.9271H197.243Z" fill="white"></path> <path d="M544.889 63H559.761V60.5917H550.157L556.871 53.758C557.693 52.9151 558.366 51.9618 558.888 50.8981C559.409 49.8344 559.67 48.7607 559.67 47.677C559.67 47.0348 559.54 46.3624 559.279 45.66C559.018 44.9576 558.617 44.3053 558.075 43.7032C557.533 43.0811 556.841 42.5793 555.998 42.198C555.155 41.7966 554.151 41.5959 552.987 41.5959C551.542 41.5959 550.298 41.917 549.254 42.5593C548.231 43.1814 547.448 44.0645 546.906 45.2084C546.364 46.3323 546.093 47.6469 546.093 49.1521H548.652C548.652 48.0884 548.823 47.1752 549.164 46.4126C549.505 45.6299 549.997 45.0378 550.639 44.6365C551.301 44.215 552.084 44.0043 552.987 44.0043C553.629 44.0043 554.201 44.1147 554.703 44.3354C555.205 44.5562 555.626 44.8472 555.968 45.2084C556.329 45.5697 556.6 45.9711 556.78 46.4126C556.961 46.8541 557.051 47.3057 557.051 47.7673C557.051 48.3292 556.961 48.8711 556.78 49.3929C556.62 49.8947 556.369 50.3964 556.028 50.8981C555.707 51.3798 555.315 51.8715 554.854 52.3732L544.889 63ZM565.19 52.4635C565.19 51.2393 565.31 50.1154 565.551 49.0919C565.792 48.0483 566.143 47.1552 566.604 46.4126C567.066 45.65 567.618 45.068 568.26 44.6666C568.922 44.2451 569.655 44.0344 570.458 44.0344C571.281 44.0344 572.013 44.2451 572.655 44.6666C573.298 45.068 573.849 45.65 574.311 46.4126C574.773 47.1552 575.124 48.0483 575.365 49.0919C575.606 50.1154 575.726 51.2393 575.726 52.4635C575.726 53.6878 575.606 54.8217 575.365 55.8653C575.124 56.8889 574.773 57.7819 574.311 58.5446C573.849 59.2872 573.298 59.8692 572.655 60.2906C572.013 60.692 571.281 60.8927 570.458 60.8927C569.655 60.8927 568.922 60.692 568.26 60.2906C567.618 59.8692 567.066 59.2872 566.604 58.5446C566.143 57.7819 565.792 56.8889 565.551 55.8653C565.31 54.8217 565.19 53.6878 565.19 52.4635ZM562.631 52.4635C562.631 54.5708 562.962 56.4373 563.624 58.0629C564.286 59.6885 565.2 60.973 566.364 61.9162C567.548 62.8394 568.912 63.301 570.458 63.301C572.003 63.301 573.358 62.8394 574.522 61.9162C575.706 60.973 576.629 59.6885 577.291 58.0629C577.954 56.4373 578.285 54.5708 578.285 52.4635C578.285 50.3562 577.954 48.4898 577.291 46.8642C576.629 45.2385 575.706 43.9641 574.522 43.0409C573.358 42.0977 572.003 41.626 570.458 41.626C568.912 41.626 567.548 42.0977 566.364 43.0409C565.2 43.9641 564.286 45.2385 563.624 46.8642C562.962 48.4898 562.631 50.3562 562.631 52.4635ZM580.079 63H594.951V60.5917H585.348L592.061 53.758C592.884 52.9151 593.556 51.9618 594.078 50.8981C594.6 49.8344 594.86 48.7607 594.86 47.677C594.86 47.0348 594.73 46.3624 594.469 45.66C594.208 44.9576 593.807 44.3053 593.265 43.7032C592.723 43.0811 592.031 42.5793 591.188 42.198C590.345 41.7966 589.341 41.5959 588.177 41.5959C586.732 41.5959 585.488 41.917 584.444 42.5593C583.421 43.1814 582.638 44.0645 582.096 45.2084C581.554 46.3323 581.283 47.6469 581.283 49.1521H583.842C583.842 48.0884 584.013 47.1752 584.354 46.4126C584.695 45.6299 585.187 45.0378 585.829 44.6365C586.492 44.215 587.274 44.0043 588.177 44.0043C588.82 44.0043 589.392 44.1147 589.893 44.3354C590.395 44.5562 590.816 44.8472 591.158 45.2084C591.519 45.5697 591.79 45.9711 591.97 46.4126C592.151 46.8541 592.241 47.3057 592.241 47.7673C592.241 48.3292 592.151 48.8711 591.97 49.3929C591.81 49.8947 591.559 50.3964 591.218 50.8981C590.897 51.3798 590.505 51.8715 590.044 52.3732L580.079 63ZM597.219 63H612.09V60.5917H602.487L609.2 53.758C610.023 52.9151 610.695 51.9618 611.217 50.8981C611.739 49.8344 612 48.7607 612 47.677C612 47.0348 611.869 46.3624 611.608 45.66C611.348 44.9576 610.946 44.3053 610.404 43.7032C609.862 43.0811 609.17 42.5793 608.327 42.198C607.484 41.7966 606.481 41.5959 605.317 41.5959C603.872 41.5959 602.627 41.917 601.584 42.5593C600.56 43.1814 599.778 44.0645 599.236 45.2084C598.694 46.3323 598.423 47.6469 598.423 49.1521H600.982C600.982 48.0884 601.152 47.1752 601.493 46.4126C601.835 45.6299 602.326 45.0378 602.969 44.6365C603.631 44.215 604.414 44.0043 605.317 44.0043C605.959 44.0043 606.531 44.1147 607.033 44.3354C607.534 44.5562 607.956 44.8472 608.297 45.2084C608.658 45.5697 608.929 45.9711 609.11 46.4126C609.29 46.8541 609.381 47.3057 609.381 47.7673C609.381 48.3292 609.29 48.8711 609.11 49.3929C608.949 49.8947 608.698 50.3964 608.357 50.8981C608.036 51.3798 607.645 51.8715 607.183 52.3732L597.219 63Z" fill="white"></path> <path d="M56.1744 602.105L54.1274 603.49C54.589 604.413 55.181 605.286 55.9035 606.109C56.6461 606.912 57.499 607.564 58.4624 608.066C59.4458 608.548 60.5094 608.789 61.6534 608.789C62.4963 608.789 63.2991 608.648 64.0617 608.367C64.8444 608.086 65.5368 607.685 66.1389 607.163C66.7611 606.641 67.2427 606.009 67.5839 605.266C67.9452 604.524 68.1258 603.691 68.1258 602.768C68.1258 601.804 67.9552 600.982 67.614 600.299C67.2728 599.597 66.8313 599.005 66.2894 598.523C65.7676 598.021 65.1957 597.61 64.5735 597.289C63.9513 596.968 63.3593 596.707 62.7974 596.506C61.5731 596.085 60.5998 595.663 59.8773 595.242C59.1748 594.8 58.6731 594.339 58.372 593.857C58.071 593.355 57.9205 592.813 57.9205 592.231C57.9205 591.549 58.1814 590.937 58.7032 590.395C59.225 589.833 60.0579 589.552 61.2018 589.552C62.0247 589.552 62.7171 589.713 63.279 590.034C63.861 590.355 64.3527 590.766 64.7541 591.268C65.1555 591.77 65.4867 592.281 65.7476 592.803L67.9452 591.539C67.604 590.796 67.1324 590.094 66.5303 589.432C65.9282 588.749 65.1957 588.197 64.3327 587.776C63.4898 587.334 62.4963 587.114 61.3524 587.114C60.1683 587.114 59.1146 587.354 58.1914 587.836C57.2682 588.298 56.5457 588.94 56.0239 589.763C55.5021 590.586 55.2412 591.519 55.2412 592.562C55.2412 593.526 55.4218 594.339 55.7831 595.001C56.1644 595.663 56.6461 596.225 57.2281 596.687C57.8101 597.128 58.4222 597.5 59.0644 597.801C59.7067 598.082 60.2887 598.312 60.8105 598.493C61.6133 598.774 62.3659 599.095 63.0683 599.456C63.7908 599.797 64.3728 600.249 64.8143 600.811C65.2559 601.373 65.4766 602.126 65.4766 603.069C65.4766 604.032 65.1354 604.825 64.4531 605.447C63.7707 606.069 62.8676 606.38 61.7437 606.38C60.9008 606.38 60.1482 606.2 59.4859 605.838C58.8236 605.477 58.2215 604.975 57.6796 604.333C57.1578 603.691 56.6561 602.948 56.1744 602.105ZM69.7771 589.823H75.1958V608.488H77.7547V589.823H83.1734V587.415H69.7771V589.823ZM84.8964 602.166H96.0349L95.1318 599.757H85.7995L84.8964 602.166ZM90.4055 592.171L94.018 600.66L94.2588 601.263L97.3294 608.488H100.189L90.4055 586.361L80.6216 608.488H83.4815L86.6123 601.082L86.8532 600.54L90.4055 592.171ZM112.106 587.415L106.657 597.168L101.238 587.415H98.3784L105.393 599.426V608.488H107.951V599.396L114.966 587.415H112.106ZM124.429 589.823H129.848V608.488H132.407V589.823H137.825V587.415H124.429V589.823ZM140.38 587.415V601.564C140.38 602.607 140.54 603.571 140.861 604.454C141.202 605.337 141.684 606.099 142.306 606.742C142.948 607.384 143.711 607.885 144.594 608.247C145.477 608.608 146.461 608.789 147.544 608.789C148.628 608.789 149.611 608.608 150.495 608.247C151.378 607.885 152.13 607.384 152.752 606.742C153.395 606.099 153.876 605.337 154.197 604.454C154.539 603.571 154.709 602.607 154.709 601.564V587.415H152.15V601.564C152.15 603.009 151.759 604.173 150.976 605.056C150.194 605.939 149.05 606.38 147.544 606.38C146.039 606.38 144.895 605.939 144.112 605.056C143.33 604.173 142.938 603.009 142.938 601.564V587.415H140.38ZM175.33 587.415V603.099L159.375 586.361V608.488H161.933V592.803L177.889 609.541V587.415H175.33ZM184.132 608.488H194.759V606.079H184.132V608.488ZM184.132 589.823H194.759V587.415H184.132V589.823ZM184.132 598.252H194.157V595.844H184.132V598.252ZM182.717 587.415V608.488H185.276V587.415H182.717ZM199.268 587.415V608.488H201.827V587.415H199.268ZM205.59 608.488C207.637 608.488 209.454 608.046 211.039 607.163C212.625 606.28 213.869 605.056 214.772 603.49C215.675 601.905 216.127 600.058 216.127 597.951C216.127 595.844 215.675 594.007 214.772 592.442C213.869 590.857 212.625 589.622 211.039 588.739C209.454 587.856 207.637 587.415 205.59 587.415H200.683V589.973H205.59C206.774 589.973 207.858 590.164 208.842 590.545C209.825 590.907 210.668 591.439 211.37 592.141C212.073 592.823 212.615 593.656 212.996 594.64C213.377 595.623 213.568 596.727 213.568 597.951C213.568 599.175 213.377 600.279 212.996 601.263C212.615 602.246 212.073 603.089 211.37 603.791C210.668 604.474 209.825 605.006 208.842 605.387C207.858 605.748 206.774 605.929 205.59 605.929H200.683V608.488H205.59ZM220.332 587.415L220.934 602.467H222.74L223.342 587.415H220.332ZM220.181 607.283C220.181 607.725 220.342 608.116 220.663 608.457C221.004 608.779 221.396 608.939 221.837 608.939C222.299 608.939 222.69 608.779 223.011 608.457C223.332 608.116 223.493 607.725 223.493 607.283C223.493 606.822 223.332 606.43 223.011 606.109C222.69 605.788 222.299 605.628 221.837 605.628C221.396 605.628 221.004 605.788 220.663 606.109C220.342 606.43 220.181 606.822 220.181 607.283Z" fill="white"></path> <path d="M970.13 598.854C970.13 597.991 970.29 597.249 970.611 596.627C970.953 595.984 971.384 595.493 971.906 595.151C972.428 594.81 972.96 594.64 973.501 594.64C974.003 594.64 974.445 594.75 974.826 594.971C975.227 595.192 975.538 595.503 975.759 595.904C976 596.305 976.121 596.787 976.121 597.349C976.121 598.413 975.93 599.256 975.549 599.878C975.167 600.48 974.706 600.911 974.164 601.172C973.622 601.433 973.1 601.564 972.598 601.564C971.775 601.564 971.153 601.323 970.732 600.841C970.33 600.359 970.13 599.697 970.13 598.854ZM967.842 598.945C967.842 599.928 968.033 600.781 968.414 601.503C968.815 602.206 969.327 602.748 969.949 603.129C970.591 603.49 971.274 603.671 971.996 603.671C972.96 603.671 973.833 603.44 974.615 602.978C975.398 602.497 976.02 601.784 976.482 600.841C976.963 599.898 977.204 598.734 977.204 597.349C977.204 596.546 977.074 595.784 976.813 595.061C976.552 594.319 976.151 593.716 975.609 593.255C975.067 592.773 974.364 592.532 973.501 592.532C972.659 592.532 971.796 592.783 970.912 593.285C970.05 593.767 969.317 594.479 968.715 595.422C968.133 596.366 967.842 597.54 967.842 598.945ZM963.176 598.854C963.176 600.841 963.557 602.587 964.32 604.092C965.082 605.577 966.196 606.731 967.661 607.554C969.146 608.377 970.963 608.789 973.11 608.789C974.836 608.789 976.221 608.628 977.264 608.307C978.328 607.966 979.312 607.524 980.215 606.982L979.161 605.266C978.178 605.889 977.184 606.31 976.181 606.531C975.197 606.731 974.174 606.832 973.11 606.832C971.525 606.832 970.14 606.511 968.956 605.868C967.792 605.206 966.889 604.283 966.246 603.099C965.604 601.895 965.283 600.48 965.283 598.854C965.283 597.469 965.504 596.185 965.945 595.001C966.387 593.817 967.009 592.783 967.812 591.9C968.635 591.017 969.618 590.325 970.762 589.823C971.926 589.321 973.21 589.07 974.615 589.07C975.88 589.07 976.983 589.281 977.927 589.703C978.87 590.124 979.653 590.696 980.275 591.418C980.897 592.141 981.359 592.964 981.66 593.887C981.981 594.79 982.141 595.743 982.141 596.747C982.141 598.011 981.951 599.035 981.569 599.818C981.208 600.58 980.787 601.132 980.305 601.473C979.843 601.814 979.462 601.985 979.161 601.985C978.84 601.985 978.589 601.925 978.408 601.804C978.248 601.664 978.137 601.493 978.077 601.293C978.017 601.072 977.987 600.841 977.987 600.6C977.987 600.48 977.987 600.339 977.987 600.179C978.007 600.018 978.027 599.888 978.047 599.787L979.281 592.833H977.024L975.94 600.359H976.151C976.05 601.022 976.1 601.624 976.301 602.166C976.502 602.708 976.823 603.149 977.264 603.49C977.726 603.811 978.258 603.972 978.86 603.972C979.422 603.972 980.014 603.841 980.636 603.581C981.258 603.32 981.84 602.908 982.382 602.346C982.944 601.784 983.396 601.042 983.737 600.119C984.078 599.195 984.249 598.072 984.249 596.747C984.249 595.543 984.048 594.369 983.647 593.225C983.245 592.081 982.643 591.047 981.84 590.124C981.038 589.201 980.034 588.468 978.83 587.926C977.626 587.385 976.221 587.114 974.615 587.114C972.929 587.114 971.384 587.415 969.979 588.017C968.594 588.619 967.39 589.452 966.367 590.515C965.343 591.579 964.55 592.823 963.989 594.248C963.447 595.673 963.176 597.209 963.176 598.854ZM985.729 594.64L992.352 609.541L998.975 594.64H996.266L992.352 604.423L988.439 594.64H985.729ZM999.601 601.564C999.601 602.948 999.912 604.193 1000.53 605.297C1001.18 606.38 1002.04 607.233 1003.12 607.855C1004.21 608.478 1005.42 608.789 1006.77 608.789C1008.13 608.789 1009.34 608.478 1010.41 607.855C1011.49 607.233 1012.34 606.38 1012.97 605.297C1013.61 604.193 1013.93 602.948 1013.93 601.564C1013.93 600.159 1013.61 598.914 1012.97 597.831C1012.34 596.747 1011.49 595.894 1010.41 595.272C1009.34 594.65 1008.13 594.339 1006.77 594.339C1005.42 594.339 1004.21 594.65 1003.12 595.272C1002.04 595.894 1001.18 596.747 1000.53 597.831C999.912 598.914 999.601 600.159 999.601 601.564ZM1002.04 601.564C1002.04 600.6 1002.24 599.747 1002.64 599.005C1003.06 598.242 1003.62 597.65 1004.33 597.229C1005.05 596.807 1005.86 596.596 1006.77 596.596C1007.67 596.596 1008.47 596.807 1009.17 597.229C1009.9 597.65 1010.46 598.242 1010.86 599.005C1011.28 599.747 1011.49 600.6 1011.49 601.564C1011.49 602.527 1011.28 603.38 1010.86 604.122C1010.46 604.865 1009.9 605.457 1009.17 605.899C1008.47 606.32 1007.67 606.531 1006.77 606.531C1005.86 606.531 1005.05 606.32 1004.33 605.899C1003.62 605.457 1003.06 604.865 1002.64 604.122C1002.24 603.38 1002.04 602.527 1002.04 601.564ZM1027.79 594.64H1025.08L1020.8 605.357L1021.79 605.477L1017.4 594.64H1014.54L1019.84 606.531L1016.04 615.11H1018.75L1027.79 594.64ZM1031.14 604.213C1031.14 603.711 1031.26 603.28 1031.5 602.918C1031.74 602.557 1032.1 602.276 1032.59 602.075C1033.09 601.875 1033.73 601.774 1034.51 601.774C1035.35 601.774 1036.15 601.885 1036.89 602.105C1037.63 602.306 1038.36 602.647 1039.06 603.129V601.714C1038.92 601.533 1038.65 601.303 1038.24 601.022C1037.84 600.721 1037.3 600.46 1036.62 600.239C1035.96 599.998 1035.12 599.878 1034.12 599.878C1032.41 599.878 1031.08 600.289 1030.12 601.112C1029.17 601.915 1028.7 602.989 1028.7 604.333C1028.7 605.276 1028.92 606.079 1029.36 606.742C1029.81 607.404 1030.39 607.916 1031.11 608.277C1031.85 608.618 1032.65 608.789 1033.49 608.789C1034.25 608.789 1035.01 608.648 1035.78 608.367C1036.56 608.086 1037.21 607.655 1037.73 607.073C1038.27 606.491 1038.55 605.758 1038.55 604.875L1038.06 603.069C1038.06 603.791 1037.88 604.434 1037.52 604.995C1037.18 605.537 1036.71 605.959 1036.11 606.26C1035.53 606.561 1034.86 606.711 1034.12 606.711C1033.54 606.711 1033.02 606.621 1032.55 606.44C1032.11 606.24 1031.76 605.949 1031.5 605.567C1031.26 605.186 1031.14 604.735 1031.14 604.213ZM1030.78 597.831C1031 597.67 1031.3 597.479 1031.68 597.259C1032.06 597.038 1032.52 596.847 1033.07 596.687C1033.63 596.526 1034.25 596.446 1034.93 596.446C1035.35 596.446 1035.76 596.486 1036.14 596.566C1036.52 596.647 1036.85 596.777 1037.13 596.958C1037.43 597.138 1037.66 597.389 1037.82 597.71C1037.98 598.011 1038.06 598.403 1038.06 598.884V608.488H1040.47V598.553C1040.47 597.65 1040.24 596.887 1039.78 596.265C1039.34 595.643 1038.71 595.171 1037.88 594.85C1037.08 594.509 1036.14 594.339 1035.05 594.339C1033.77 594.339 1032.67 594.529 1031.74 594.911C1030.84 595.292 1030.13 595.673 1029.6 596.055L1030.78 597.831ZM1044.55 585.006V608.488H1046.96V585.006H1044.55ZM1052.57 604.213C1052.57 603.711 1052.69 603.28 1052.93 602.918C1053.17 602.557 1053.54 602.276 1054.02 602.075C1054.52 601.875 1055.16 601.774 1055.94 601.774C1056.79 601.774 1057.58 601.885 1058.32 602.105C1059.06 602.306 1059.79 602.647 1060.49 603.129V601.714C1060.35 601.533 1060.08 601.303 1059.68 601.022C1059.27 600.721 1058.73 600.46 1058.05 600.239C1057.39 599.998 1056.56 599.878 1055.55 599.878C1053.85 599.878 1052.51 600.289 1051.55 601.112C1050.6 601.915 1050.13 602.989 1050.13 604.333C1050.13 605.276 1050.35 606.079 1050.8 606.742C1051.24 607.404 1051.82 607.916 1052.54 608.277C1053.28 608.618 1054.08 608.789 1054.92 608.789C1055.68 608.789 1056.45 608.648 1057.21 608.367C1057.99 608.086 1058.64 607.655 1059.16 607.073C1059.71 606.491 1059.98 605.758 1059.98 604.875L1059.5 603.069C1059.5 603.791 1059.32 604.434 1058.95 604.995C1058.61 605.537 1058.14 605.959 1057.54 606.26C1056.96 606.561 1056.29 606.711 1055.55 606.711C1054.97 606.711 1054.45 606.621 1053.99 606.44C1053.55 606.24 1053.19 605.949 1052.93 605.567C1052.69 605.186 1052.57 604.735 1052.57 604.213ZM1052.21 597.831C1052.43 597.67 1052.73 597.479 1053.11 597.259C1053.49 597.038 1053.96 596.847 1054.5 596.687C1055.06 596.526 1055.68 596.446 1056.36 596.446C1056.79 596.446 1057.19 596.486 1057.57 596.566C1057.95 596.647 1058.28 596.777 1058.56 596.958C1058.86 597.138 1059.09 597.389 1059.25 597.71C1059.42 598.011 1059.5 598.403 1059.5 598.884V608.488H1061.9V598.553C1061.9 597.65 1061.67 596.887 1061.21 596.265C1060.77 595.643 1060.14 595.171 1059.32 594.85C1058.51 594.509 1057.57 594.339 1056.49 594.339C1055.2 594.339 1054.1 594.529 1053.17 594.911C1052.27 595.292 1051.56 595.673 1051.04 596.055L1052.21 597.831ZM1068.24 585.006H1065.83V608.488H1068.24V585.006ZM1079.83 601.564C1079.83 600.058 1079.52 598.774 1078.9 597.71C1078.27 596.627 1077.44 595.794 1076.4 595.212C1075.37 594.63 1074.23 594.339 1072.97 594.339C1071.82 594.339 1070.81 594.63 1069.93 595.212C1069.06 595.794 1068.38 596.627 1067.88 597.71C1067.4 598.774 1067.16 600.058 1067.16 601.564C1067.16 603.049 1067.4 604.333 1067.88 605.417C1068.38 606.501 1069.06 607.334 1069.93 607.916C1070.81 608.498 1071.82 608.789 1072.97 608.789C1074.23 608.789 1075.37 608.498 1076.4 607.916C1077.44 607.334 1078.27 606.501 1078.9 605.417C1079.52 604.333 1079.83 603.049 1079.83 601.564ZM1077.39 601.564C1077.39 602.627 1077.17 603.53 1076.73 604.273C1076.31 605.016 1075.74 605.577 1075.01 605.959C1074.31 606.34 1073.53 606.531 1072.66 606.531C1071.96 606.531 1071.27 606.34 1070.59 605.959C1069.91 605.577 1069.34 605.016 1068.9 604.273C1068.46 603.53 1068.24 602.627 1068.24 601.564C1068.24 600.5 1068.46 599.597 1068.9 598.854C1069.34 598.112 1069.91 597.55 1070.59 597.168C1071.27 596.787 1071.96 596.596 1072.66 596.596C1073.53 596.596 1074.31 596.787 1075.01 597.168C1075.74 597.55 1076.31 598.112 1076.73 598.854C1077.17 599.597 1077.39 600.5 1077.39 601.564ZM1083.72 604.243L1081.83 605.417C1082.09 605.959 1082.47 606.491 1082.97 607.012C1083.49 607.534 1084.12 607.966 1084.87 608.307C1085.61 608.628 1086.44 608.789 1087.36 608.789C1088.79 608.789 1089.93 608.387 1090.8 607.584C1091.68 606.782 1092.12 605.778 1092.12 604.574C1092.12 603.751 1091.92 603.079 1091.52 602.557C1091.14 602.035 1090.62 601.594 1089.95 601.232C1089.29 600.851 1088.56 600.5 1087.76 600.179C1087.27 599.978 1086.81 599.767 1086.37 599.547C1085.93 599.326 1085.57 599.075 1085.29 598.794C1085.01 598.513 1084.87 598.192 1084.87 597.831C1084.87 597.369 1085.05 597.028 1085.41 596.807C1085.77 596.586 1086.2 596.476 1086.7 596.476C1087.43 596.476 1088.07 596.647 1088.63 596.988C1089.21 597.329 1089.69 597.76 1090.07 598.282L1092 597.048C1091.72 596.526 1091.33 596.065 1090.83 595.663C1090.33 595.262 1089.74 594.941 1089.08 594.7C1088.44 594.459 1087.75 594.339 1087 594.339C1086.26 594.339 1085.54 594.469 1084.84 594.73C1084.15 594.991 1083.59 595.392 1083.15 595.934C1082.73 596.476 1082.52 597.158 1082.52 597.981C1082.52 598.784 1082.72 599.456 1083.12 599.998C1083.54 600.52 1084.05 600.951 1084.66 601.293C1085.28 601.614 1085.89 601.895 1086.49 602.136C1087.03 602.336 1087.55 602.557 1088.03 602.798C1088.51 603.019 1088.9 603.3 1089.2 603.641C1089.52 603.962 1089.68 604.363 1089.68 604.845C1089.68 605.387 1089.48 605.818 1089.08 606.139C1088.7 606.44 1088.17 606.591 1087.49 606.591C1086.92 606.591 1086.4 606.491 1085.92 606.29C1085.46 606.069 1085.05 605.778 1084.69 605.417C1084.32 605.056 1084 604.664 1083.72 604.243Z" fill="white"></path> <circle cx="420.254" cy="597.988" r="22.2771" fill="white"></circle> <path d="M418.144 596.56C418.64 595.816 418.888 594.947 418.888 593.954C418.888 591.347 416.654 589.362 414.172 589.362H406.973C406.601 589.362 406.353 589.61 406.353 589.982V605.745C406.353 606.117 406.601 606.365 406.973 606.365H414.917C417.895 606.365 420.378 604.007 420.378 601.028C420.378 599.167 419.509 597.553 418.144 596.56ZM409.455 592.589H414.172C415.041 592.589 415.661 593.333 415.661 594.078C415.661 594.947 414.917 595.567 414.172 595.567H409.455V592.589ZM415.041 603.263H409.455V598.794H415.041C416.282 598.794 417.275 599.787 417.275 601.028C417.275 602.27 416.282 603.263 415.041 603.263Z" fill="#0E0E0E"></path> <path d="M434.155 599.911C434.155 596.188 431.3 593.209 427.7 593.209C424.101 593.209 421.246 596.188 421.246 599.911C421.246 603.635 424.101 606.614 427.7 606.614C429.81 606.614 431.796 605.497 433.037 603.635C433.162 603.387 433.286 603.138 433.41 602.89C433.534 602.766 433.41 602.518 433.162 602.518H430.059C429.935 602.518 429.935 602.518 429.81 602.642C429.19 603.263 428.445 603.511 427.7 603.511C426.087 603.511 424.846 602.394 424.473 600.78H433.534C433.906 600.78 434.155 600.532 434.155 600.16V599.911ZM427.7 596.436C428.818 596.436 429.81 597.057 430.431 598.05H424.97C425.466 597.057 426.583 596.436 427.7 596.436Z" fill="#0E0E0E"></path> <path d="M430.307 592.464H424.598C424.349 592.464 424.101 592.216 424.101 591.968V590.603C424.101 590.355 424.349 590.106 424.598 590.106H430.307C430.555 590.106 430.803 590.355 430.803 590.603V592.092C430.803 592.216 430.679 592.464 430.307 592.464Z" fill="#0E0E0E"></path> <path d="M465.019 602.166H476.158L475.254 599.757H465.922L465.019 602.166ZM470.528 592.171L474.141 600.66L474.381 601.263L477.452 608.488H480.312L470.528 586.361L460.744 608.488H463.604L466.735 601.082L466.976 600.54L470.528 592.171ZM498.831 587.415V603.099L482.876 586.361V608.488H485.434V592.803L501.39 609.541V587.415H498.831ZM506.218 587.415V608.488H508.777V587.415H506.218ZM512.54 608.488C514.587 608.488 516.403 608.046 517.989 607.163C519.574 606.28 520.819 605.056 521.722 603.49C522.625 601.905 523.076 600.058 523.076 597.951C523.076 595.844 522.625 594.007 521.722 592.442C520.819 590.857 519.574 589.622 517.989 588.739C516.403 587.856 514.587 587.415 512.54 587.415H507.633V589.973H512.54C513.724 589.973 514.808 590.164 515.791 590.545C516.775 590.907 517.617 591.439 518.32 592.141C519.022 592.823 519.564 593.656 519.946 594.64C520.327 595.623 520.518 596.727 520.518 597.951C520.518 599.175 520.327 600.279 519.946 601.263C519.564 602.246 519.022 603.089 518.32 603.791C517.617 604.474 516.775 605.006 515.791 605.387C514.808 605.748 513.724 605.929 512.54 605.929H507.633V608.488H512.54ZM537.12 589.823H546.542V587.415H537.12V589.823ZM537.12 598.252H546.241V595.844H537.12V598.252ZM535.705 587.415V608.488H538.264V587.415H535.705ZM552.262 597.951C552.262 596.366 552.603 594.951 553.286 593.706C553.988 592.462 554.941 591.479 556.146 590.756C557.35 590.034 558.714 589.672 560.24 589.672C561.785 589.672 563.15 590.034 564.334 590.756C565.538 591.479 566.481 592.462 567.164 593.706C567.866 594.951 568.217 596.366 568.217 597.951C568.217 599.537 567.866 600.951 567.164 602.196C566.481 603.44 565.538 604.423 564.334 605.146C563.15 605.868 561.785 606.23 560.24 606.23C558.714 606.23 557.35 605.868 556.146 605.146C554.941 604.423 553.988 603.44 553.286 602.196C552.603 600.951 552.262 599.537 552.262 597.951ZM549.553 597.951C549.553 599.476 549.814 600.901 550.335 602.226C550.877 603.55 551.63 604.704 552.593 605.688C553.557 606.651 554.691 607.414 555.995 607.976C557.3 608.518 558.714 608.789 560.24 608.789C561.785 608.789 563.2 608.518 564.484 607.976C565.789 607.414 566.923 606.651 567.886 605.688C568.85 604.704 569.592 603.55 570.114 602.226C570.656 600.901 570.927 599.476 570.927 597.951C570.927 596.406 570.656 594.981 570.114 593.676C569.592 592.352 568.85 591.208 567.886 590.244C566.923 589.261 565.789 588.498 564.484 587.957C563.2 587.395 561.785 587.114 560.24 587.114C558.714 587.114 557.3 587.395 555.995 587.957C554.691 588.498 553.557 589.261 552.593 590.244C551.63 591.208 550.877 592.352 550.335 593.676C549.814 594.981 549.553 596.406 549.553 597.951ZM574.54 587.415V608.488H585.378V606.079H577.099V587.415H574.54ZM588.093 587.415V608.488H598.931V606.079H590.652V587.415H588.093ZM602.24 597.951C602.24 596.366 602.581 594.951 603.263 593.706C603.966 592.462 604.919 591.479 606.123 590.756C607.327 590.034 608.692 589.672 610.217 589.672C611.763 589.672 613.127 590.034 614.311 590.756C615.516 591.479 616.459 592.462 617.141 593.706C617.844 594.951 618.195 596.366 618.195 597.951C618.195 599.537 617.844 600.951 617.141 602.196C616.459 603.44 615.516 604.423 614.311 605.146C613.127 605.868 611.763 606.23 610.217 606.23C608.692 606.23 607.327 605.868 606.123 605.146C604.919 604.423 603.966 603.44 603.263 602.196C602.581 600.951 602.24 599.537 602.24 597.951ZM599.53 597.951C599.53 599.476 599.791 600.901 600.313 602.226C600.855 603.55 601.608 604.704 602.571 605.688C603.534 606.651 604.668 607.414 605.973 607.976C607.277 608.518 608.692 608.789 610.217 608.789C611.763 608.789 613.178 608.518 614.462 607.976C615.767 607.414 616.9 606.651 617.864 605.688C618.827 604.704 619.57 603.55 620.092 602.226C620.633 600.901 620.904 599.476 620.904 597.951C620.904 596.406 620.633 594.981 620.092 593.676C619.57 592.352 618.827 591.208 617.864 590.244C616.9 589.261 615.767 588.498 614.462 587.957C613.178 587.395 611.763 587.114 610.217 587.114C608.692 587.114 607.277 587.395 605.973 587.957C604.668 588.498 603.534 589.261 602.571 590.244C601.608 591.208 600.855 592.352 600.313 593.676C599.791 594.981 599.53 596.406 599.53 597.951ZM642.362 602.918L636.1 586.361L629.959 602.918L624.359 587.415H621.499L629.778 609.541L636.1 593.165L642.422 609.541L650.7 587.415H647.84L642.362 602.918ZM662.292 587.415V601.564C662.292 602.607 662.452 603.571 662.773 604.454C663.115 605.337 663.596 606.099 664.218 606.742C664.861 607.384 665.623 607.885 666.506 608.247C667.389 608.608 668.373 608.789 669.456 608.789C670.54 608.789 671.524 608.608 672.407 608.247C673.29 607.885 674.042 607.384 674.664 606.742C675.307 606.099 675.788 605.337 676.109 604.454C676.451 603.571 676.621 602.607 676.621 601.564V587.415H674.062V601.564C674.062 603.009 673.671 604.173 672.888 605.056C672.106 605.939 670.962 606.38 669.456 606.38C667.951 606.38 666.807 605.939 666.025 605.056C665.242 604.173 664.851 603.009 664.851 601.564V587.415H662.292ZM682.069 602.105L680.022 603.49C680.484 604.413 681.076 605.286 681.798 606.109C682.541 606.912 683.394 607.564 684.357 608.066C685.341 608.548 686.404 608.789 687.548 608.789C688.391 608.789 689.194 608.648 689.957 608.367C690.739 608.086 691.432 607.685 692.034 607.163C692.656 606.641 693.138 606.009 693.479 605.266C693.84 604.524 694.021 603.691 694.021 602.768C694.021 601.804 693.85 600.982 693.509 600.299C693.168 599.597 692.726 599.005 692.184 598.523C691.663 598.021 691.091 597.61 690.468 597.289C689.846 596.968 689.254 596.707 688.692 596.506C687.468 596.085 686.495 595.663 685.772 595.242C685.07 594.8 684.568 594.339 684.267 593.857C683.966 593.355 683.815 592.813 683.815 592.231C683.815 591.549 684.076 590.937 684.598 590.395C685.12 589.833 685.953 589.552 687.097 589.552C687.92 589.552 688.612 589.713 689.174 590.034C689.756 590.355 690.248 590.766 690.649 591.268C691.05 591.77 691.382 592.281 691.643 592.803L693.84 591.539C693.499 590.796 693.027 590.094 692.425 589.432C691.823 588.749 691.091 588.197 690.228 587.776C689.385 587.334 688.391 587.114 687.247 587.114C686.063 587.114 685.01 587.354 684.086 587.836C683.163 588.298 682.441 588.94 681.919 589.763C681.397 590.586 681.136 591.519 681.136 592.562C681.136 593.526 681.317 594.339 681.678 595.001C682.059 595.663 682.541 596.225 683.123 596.687C683.705 597.128 684.317 597.5 684.959 597.801C685.602 598.082 686.184 598.312 686.705 598.493C687.508 598.774 688.261 599.095 688.963 599.456C689.686 599.797 690.268 600.249 690.709 600.811C691.151 601.373 691.372 602.126 691.372 603.069C691.372 604.032 691.03 604.825 690.348 605.447C689.666 606.069 688.763 606.38 687.639 606.38C686.796 606.38 686.043 606.2 685.381 605.838C684.719 605.477 684.116 604.975 683.575 604.333C683.053 603.691 682.551 602.948 682.069 602.105Z" fill="white"></path> <circle cx="735.932" cy="597.988" r="22.2771" fill="white"></circle> <path d="M735.932 581.13C726.636 581.13 719.073 588.692 719.073 597.988C719.073 607.283 726.636 614.846 735.932 614.846C745.227 614.846 752.79 607.283 752.79 597.988C752.79 588.692 745.227 581.13 735.932 581.13ZM746.917 589.08C748.81 591.41 749.975 594.35 750.072 597.556C746.566 596.83 743.392 596.915 740.589 597.465C740.082 596.278 739.557 595.147 739.027 594.079C742.078 592.764 744.735 591.085 746.917 589.08ZM745.018 587.15C742.852 589.127 740.342 590.591 737.772 591.672C735.886 588.222 734.081 585.624 732.981 584.148C733.933 583.945 734.92 583.836 735.932 583.836C739.388 583.836 742.558 585.084 745.018 587.15ZM730.248 585.032C731.078 586.108 733.055 588.802 735.18 592.634C729.841 594.374 724.66 594.667 722.171 594.694C723.209 590.36 726.244 586.795 730.248 585.032ZM721.795 597.408C721.822 597.408 721.847 597.408 721.875 597.408C723.595 597.408 726.746 597.292 730.456 596.616C732.573 596.23 734.58 595.71 736.463 595.066C736.954 596.043 737.441 597.074 737.914 598.155C735.277 599.004 733.053 600.225 731.291 601.438C728.337 603.472 726.268 605.729 725.138 607.125C723.046 604.657 721.78 601.469 721.78 597.988C721.78 597.793 721.787 597.6 721.795 597.408ZM727.088 609.024C728.061 607.799 730.041 605.57 732.905 603.613C734.852 602.284 736.866 601.296 738.939 600.648C740.142 603.766 741.169 607.211 741.781 610.868C739.997 611.682 738.017 612.139 735.932 612.139C732.587 612.139 729.513 610.971 727.088 609.024ZM744.271 609.411C743.64 606.051 742.699 602.893 741.611 600.006C744.287 599.554 747.053 599.647 749.894 600.285C749.281 604.019 747.204 607.264 744.271 609.411Z" fill="#0E0E0E"></path> <g clip-path="url(#clip1_1279_16826)"> <path fill-rule="evenodd" clip-rule="evenodd" d="M372.229 255.027V267.308C373.425 267.249 374.621 267.432 375.744 267.846C376.867 268.259 377.894 268.896 378.762 269.716C379.63 270.536 380.321 271.523 380.793 272.617C381.265 273.71 381.509 274.888 381.509 276.078C381.509 277.268 381.265 278.446 380.793 279.539C380.321 280.633 379.63 281.62 378.762 282.44C377.894 283.26 376.867 283.896 375.744 284.31C374.621 284.724 373.425 284.907 372.229 284.847V300.052C373.428 299.988 374.627 300.167 375.755 300.578C376.882 300.99 377.913 301.625 378.785 302.446C379.656 303.266 380.351 304.255 380.825 305.351C381.3 306.447 381.544 307.627 381.544 308.82C381.544 310.013 381.3 311.193 380.825 312.289C380.351 313.385 379.656 314.374 378.785 315.194C377.913 316.015 376.882 316.65 375.755 317.061C374.627 317.473 373.428 317.652 372.229 317.588V332.792C373.425 332.733 374.621 332.916 375.744 333.33C376.867 333.743 377.894 334.38 378.762 335.2C379.63 336.02 380.321 337.007 380.793 338.101C381.265 339.194 381.509 340.372 381.509 341.562C381.509 342.752 381.265 343.93 380.793 345.023C380.321 346.117 379.63 347.104 378.762 347.924C377.894 348.744 376.867 349.381 375.744 349.794C374.621 350.208 373.425 350.391 372.229 350.331V365.536C373.425 365.477 374.621 365.66 375.744 366.073C376.867 366.487 377.894 367.124 378.762 367.944C379.63 368.764 380.321 369.751 380.793 370.845C381.265 371.938 381.509 373.116 381.509 374.306C381.509 375.496 381.265 376.673 380.793 377.767C380.321 378.861 379.63 379.848 378.762 380.668C377.894 381.488 376.867 382.124 375.744 382.538C374.621 382.952 373.425 383.135 372.229 383.075V395.357L520.117 395.357V255.026L372.229 255.027ZM479.154 272.588C484.03 281.697 498.886 297.312 495.495 307.113C493.458 312.919 487.352 319.713 479.154 319.713C471.011 319.713 464.85 312.919 462.869 307.113C459.422 297.323 474.529 281.489 479.154 272.588ZM440.437 338.577C436.274 338.592 432.286 340.247 429.349 343.178C426.412 346.109 424.764 350.077 424.767 354.213C424.767 367.245 413.984 377.847 400.903 377.847C399.875 377.816 398.9 377.389 398.184 376.656C397.468 375.922 397.068 374.941 397.068 373.92C397.068 372.899 397.468 371.917 398.184 371.184C398.9 370.451 399.875 370.024 400.903 369.992C405.119 369.982 409.16 368.318 412.149 365.364C415.137 362.409 416.83 358.402 416.86 354.213C416.857 347.995 419.337 342.03 423.755 337.626C428.174 333.222 434.171 330.739 440.43 330.722C441.457 330.753 442.432 331.18 443.148 331.913C443.864 332.647 444.264 333.628 444.264 334.649C444.264 335.671 443.864 336.652 443.148 337.385C442.432 338.118 441.457 338.545 440.43 338.577H440.437ZM444.389 288.319H428.575V304.014H444.389V319.724H396.951V272.588H412.761V288.319H428.575V272.588H444.389V288.319ZM479.176 377.525C474.485 377.525 469.899 376.143 465.998 373.554C462.097 370.965 459.056 367.284 457.261 362.979C455.466 358.673 454.996 353.935 455.911 349.364C456.827 344.792 459.086 340.594 462.403 337.298C465.72 334.002 469.947 331.758 474.548 330.849C479.15 329.94 483.919 330.406 488.254 332.19C492.588 333.973 496.293 336.994 498.899 340.869C501.506 344.744 502.897 349.3 502.897 353.961C502.897 360.21 500.398 366.204 495.949 370.623C491.501 375.043 485.467 377.525 479.176 377.525Z" fill="white"></path> <path d="M575.958 295.022L559.181 255.027H544.609L575.958 320.017L607.303 255.027H592.647L575.958 295.022Z" fill="white"></path> <path d="M622.515 286.951C622.515 283.049 623.34 279.571 624.991 276.517C626.561 273.553 628.911 271.068 631.79 269.324C634.675 267.568 638.031 266.692 641.856 266.694C645.739 266.694 649.122 267.571 652.008 269.324C654.875 271.055 657.199 273.546 658.719 276.517C660.31 279.556 661.105 283.034 661.105 286.951C661.105 290.868 660.28 294.348 658.63 297.389C657.11 300.36 654.786 302.85 651.919 304.582C649.036 306.335 645.682 307.212 641.856 307.212C638.031 307.212 634.675 306.335 631.79 304.582C628.912 302.837 626.562 300.352 624.991 297.389C623.34 294.35 622.515 290.871 622.515 286.951ZM609.182 286.951C609.142 291.361 609.952 295.737 611.569 299.844C613.108 303.688 615.422 307.18 618.368 310.106C621.325 313.04 624.836 315.365 628.7 316.948C632.893 318.562 637.359 319.366 641.856 319.315C646.326 319.371 650.763 318.567 654.925 316.948C658.787 315.382 662.294 313.061 665.236 310.122C668.178 307.184 670.496 303.689 672.052 299.844C673.726 295.751 674.567 291.369 674.527 286.951C674.583 282.561 673.741 278.204 672.052 274.146C670.515 270.305 668.166 266.835 665.164 263.972C662.215 261.1 658.706 258.859 654.851 257.387C650.713 255.775 646.301 254.974 641.856 255.027C637.416 254.989 633.01 255.792 628.873 257.394C625.018 258.866 621.508 261.108 618.56 263.979C615.596 266.874 613.253 270.335 611.672 274.154C609.979 278.208 609.132 282.562 609.182 286.951V286.951Z" fill="white"></path> <path d="M715.965 255.027L702.632 279.762L689.387 255.027H674.978L696.26 291.074V316.421H709.063V290.987L730.356 255.027H715.965Z" fill="white"></path> <path d="M753.459 255.027C743.014 275.515 732.566 295.993 722.118 316.461H736.332L742.793 302.515H763.99L770.506 316.461H784.812C774.368 295.993 763.918 275.515 753.459 255.027ZM745.724 292.604L753.459 274.973L761.128 292.604H745.724Z" fill="white"></path> <path d="M544.609 333.963V395.357H581.873V384.381H557.236V333.963H544.609Z" fill="white"></path> <path d="M701.088 370.098C699.86 367.942 698.099 366.131 695.971 364.837C694.217 363.714 692.313 362.841 690.314 362.244C692.868 361.23 695.118 359.586 696.852 357.466C698.615 355.244 699.498 352.583 699.5 349.483C699.5 345.975 698.617 343.081 696.852 340.801C695.086 338.52 692.643 336.825 689.522 335.716C686.401 334.545 682.78 333.959 678.66 333.959H658.085V395.357H679.986C684.575 395.357 688.607 394.747 692.082 393.528C695.556 392.308 698.235 390.409 700.119 387.831C702.059 385.256 703.03 381.952 703.032 377.92C703.032 374.869 702.384 372.262 701.088 370.098ZM670.711 343.962H677.511C680.281 343.962 682.459 344.572 684.045 345.791C685.695 347.011 686.52 348.795 686.52 351.144C686.555 352.545 686.153 353.924 685.371 355.091C684.626 356.232 683.548 357.12 682.281 357.634C680.763 358.252 679.132 358.551 677.492 358.512H670.711V343.962ZM688.55 381.502C687.565 382.878 686.177 383.919 684.575 384.484C682.724 385.089 680.785 385.384 678.837 385.358H670.711V367.644H678.837C680.327 367.631 681.812 367.808 683.257 368.17C684.537 368.43 685.743 368.969 686.789 369.747C687.819 370.419 688.644 371.359 689.172 372.465C689.794 373.656 690.098 374.985 690.056 376.325C690.054 378.43 689.551 380.156 688.55 381.502Z" fill="white"></path> <path d="M720.944 373.08L711.938 379.395C713.356 382.353 715.266 385.052 717.589 387.378C720.018 389.844 722.892 391.837 726.06 393.253C729.41 394.668 733.017 395.384 736.657 395.357C739.39 395.372 742.106 394.928 744.69 394.044C747.21 393.261 749.572 392.044 751.667 390.447C753.787 388.795 755.49 386.674 756.641 384.253C757.792 381.832 758.359 379.178 758.297 376.501C758.346 374.125 757.895 371.765 756.974 369.572C756.19 367.587 754.985 365.793 753.442 364.311C751.964 362.785 750.267 361.485 748.407 360.451C746.581 359.398 744.66 358.517 742.668 357.821C740.019 356.954 737.425 355.929 734.9 354.751C732.838 353.697 731.307 352.616 730.307 351.506C729.331 350.391 728.798 348.96 728.808 347.482C728.806 346.73 728.971 345.987 729.289 345.305C729.607 344.623 730.071 344.019 730.65 343.534C731.877 342.363 733.731 341.779 736.211 341.782C737.957 341.75 739.683 342.14 741.243 342.919C742.716 343.622 744.037 344.605 745.129 345.813C746.308 346.985 747.318 348.313 748.131 349.761L758.02 344.324C756.863 342.026 755.343 339.927 753.519 338.105C751.506 335.967 749.071 334.265 746.366 333.104C743.54 331.76 740.155 331.088 736.211 331.088C732.633 331.035 729.084 331.746 725.806 333.173C722.864 334.422 720.327 336.456 718.476 339.049C716.708 341.566 715.826 344.578 715.828 348.085C715.828 351.012 716.387 353.527 717.504 355.629C718.586 357.625 720.027 359.408 721.754 360.89C723.404 362.264 725.206 363.447 727.125 364.417C729.07 365.29 730.777 365.991 732.248 366.521C735.013 367.574 737.339 368.568 739.224 369.502C741.162 370.38 742.603 371.403 743.549 372.572C744.548 373.742 745.048 375.292 745.048 377.222C745.048 379.441 744.253 381.195 742.665 382.483C741.073 383.771 739.018 384.414 736.484 384.414C734.37 384.429 732.283 383.948 730.392 383.01C728.43 382.012 726.665 380.671 725.184 379.051C723.556 377.22 722.134 375.218 720.944 373.08V373.08Z" fill="white"></path> <path d="M769.636 388.34C769.629 389.252 769.805 390.156 770.153 390.999C770.502 391.843 771.016 392.609 771.665 393.253C772.343 393.938 773.155 394.478 774.051 394.84C774.946 395.202 775.907 395.378 776.874 395.357C777.821 395.378 778.762 395.212 779.643 394.866C780.524 394.521 781.327 394.005 782.005 393.347C782.682 392.69 783.22 391.904 783.587 391.037C783.955 390.17 784.144 389.239 784.144 388.298C784.144 387.357 783.955 386.426 783.587 385.559C783.22 384.691 782.682 383.906 782.005 383.248C781.327 382.591 780.524 382.074 779.643 381.729C778.762 381.384 777.821 381.217 776.874 381.239C775.907 381.217 774.946 381.393 774.05 381.755C773.154 382.116 772.343 382.657 771.665 383.342C771.001 383.993 770.479 384.773 770.13 385.632C769.781 386.492 769.613 387.413 769.636 388.34V388.34Z" fill="white"></path> <path d="M618.437 333.926L587.096 395.357H601.31L607.766 381.414H628.964L635.48 395.357H649.786C639.34 374.881 628.89 354.404 618.437 333.926ZM610.702 371.503L618.437 353.873L626.106 371.503H610.702Z" fill="white"></path> </g> </g> <defs> <clipPath id="clip0_1279_16826"> <rect width="1156" height="650.25" fill="white"></rect> </clipPath> <clipPath id="clip1_1279_16826"> <rect width="412.582" height="140.334" fill="white" transform="translate(372.229 255.026)"></rect> </clipPath> </defs> </svg> 