<?xml version="1.0" encoding="UTF-8"?> <svg xmlns="http://www.w3.org/2000/svg" width="181" height="42" viewBox="0 0 181 42" fill="none"> <g clip-path="url(#clip0_918_11479)"> <path fill-rule="evenodd" clip-rule="evenodd" d="M0 7.95906C0 7.16363 0.155222 5.17505 3.12384 5.17505C6.09245 5.17505 6.20887 7.16363 6.20887 7.95906C6.20887 8.75449 6.09245 19.9343 6.09245 19.9343C6.09245 21.0081 6.17976 21.9567 6.35439 22.7799C6.52901 23.6032 6.82005 24.2952 7.22751 24.856C7.63497 25.4168 8.17048 25.8404 8.83405 26.1267C9.49763 26.4131 10.33 26.5563 11.3312 26.5563C12.3324 26.5563 13.1647 26.4131 13.8283 26.1267C14.4919 25.8404 15.0274 25.4168 15.4349 24.856C15.8423 24.2952 16.1334 23.6032 16.308 22.7799C16.4826 21.9567 16.6863 21.0081 16.6863 19.9343C16.6863 19.9343 16.6863 8.75449 16.6863 7.95906C16.6863 7.16363 16.9269 5.17505 19.7908 5.17505C22.6546 5.17505 22.8952 7.16363 22.8952 7.95906C22.8952 8.75449 22.8952 20.5428 22.8952 20.5428C22.8952 24.17 21.8358 27.3954 19.9266 29.4238C18.0173 31.4521 14.8935 32.4663 11.3312 32.4663C7.76883 32.4663 4.64502 31.4521 2.73578 29.4238C0.826546 27.3954 0.259996 24.17 0.259996 20.5428C0.259996 20.5428 0 8.75449 0 7.95906Z" fill="white"></path> <path fill-rule="evenodd" clip-rule="evenodd" d="M49.6709 26.6519C49.6709 26.6519 50.4218 26.9522 50.8525 27.155C51.2832 27.3578 51.7955 27.5487 52.3892 27.7277C52.9829 27.9067 53.6581 28.0618 54.4148 28.193C55.1716 28.3243 55.969 28.3899 56.8072 28.3899C57.7618 28.3899 58.4836 28.3004 58.9725 28.1214C59.4615 27.9425 59.706 27.6263 59.706 27.1729C59.706 26.6956 59.5022 26.3675 59.0948 26.1885C58.6873 26.0096 58.0529 25.8604 57.1914 25.7411L55.3753 25.5263C54.4672 25.407 53.5941 25.234 52.7559 25.0073C51.9177 24.7806 51.1785 24.4466 50.5382 24.0051C49.8979 23.5636 49.3915 22.9969 49.0189 22.3048C48.6464 21.6128 48.4602 20.7418 48.4602 19.6919C48.4602 18.8089 48.6173 17.9916 48.9316 17.2399C49.246 16.4882 49.7407 15.832 50.4159 15.2712C51.0912 14.7105 51.9526 14.269 53.0004 13.9468C54.0481 13.6247 55.2938 13.4636 56.7373 13.4636C58.2042 13.4636 59.4673 13.5591 60.5267 13.75C61.5861 13.9409 62.4999 14.2392 63.2683 14.6448C63.7107 14.8835 64.0657 15.1758 64.3335 15.5218C64.6013 15.8678 64.7351 16.2914 64.7351 16.7925C64.7351 17.1743 64.6595 17.5144 64.5081 17.8126C64.3568 18.1109 64.1822 18.3675 63.9843 18.5822C63.7863 18.797 63.6001 18.964 63.4255 19.0833C63.2508 19.2027 63.1402 19.2743 63.0937 19.2981C63.0238 19.2265 62.8317 19.0953 62.5174 18.9044C62.2031 18.7135 61.784 18.5285 61.2601 18.3496C60.7362 18.1706 60.1076 18.0095 59.3742 17.8663C58.6407 17.7232 57.8084 17.6516 56.877 17.6516C55.8293 17.6516 55.1017 17.7769 54.6942 18.0274C54.2868 18.278 54.0831 18.6061 54.0831 19.0118C54.0831 19.4174 54.2693 19.7038 54.6419 19.8708C55.0144 20.0379 55.5732 20.181 56.3182 20.3004L59.4964 20.7657C60.288 20.885 61.0506 21.058 61.784 21.2847C62.5174 21.5114 63.1693 21.8395 63.7398 22.2691C64.3102 22.6986 64.7642 23.2474 65.1019 23.9156C65.4395 24.5838 65.6083 25.3951 65.6083 26.3496C65.6083 28.3541 64.8632 29.9171 63.3731 31.0387C61.8829 32.1603 59.8224 32.721 57.1914 32.721C55.8176 32.721 54.6011 32.6256 53.5417 32.4347C52.4823 32.2438 51.5685 32.023 50.8001 31.7725C50.0318 31.5219 49.4089 31.2594 48.9316 30.985C48.4543 30.7106 48.1225 30.5018 47.9363 30.3586C47.9363 30.3586 46.1784 29.3921 46.9545 27.4592C47.7306 25.5263 49.6709 26.6519 49.6709 26.6519Z" fill="white"></path> <path fill-rule="evenodd" clip-rule="evenodd" d="M89.2524 20.6861C89.2524 19.5169 89.2563 18.4112 89.6405 17.5044C90.0247 16.5976 90.5408 15.9812 91.216 15.3607C91.8912 14.7403 92.7061 14.269 93.6607 13.9468C94.6154 13.6247 95.6631 13.4636 96.804 13.4636C98.201 13.4636 99.2895 13.6187 100.069 13.929C100.849 14.2392 101.414 14.5732 101.763 14.9312C101.973 15.1698 102.136 15.4204 102.252 15.6829C102.369 15.9454 102.427 16.2556 102.427 16.6135C102.427 16.9715 102.374 17.3056 102.27 17.6158C102.165 17.926 102.037 18.2004 101.886 18.4391C101.734 18.6777 101.589 18.8805 101.449 19.0476C101.309 19.2146 101.205 19.3339 101.135 19.4055C100.739 19.2146 100.262 19.0356 99.7027 18.8686C99.1439 18.7015 98.5269 18.618 97.8517 18.618C96.967 18.618 96.2161 18.8805 95.5991 19.4055C94.9821 19.9305 94.6736 20.8015 94.6736 22.0185C94.6736 22.0185 94.6736 29.4359 94.6736 30.2313C94.6736 31.0268 94.2971 33.0153 91.9688 33.0153C89.6405 33.0153 89.2524 31.0268 89.2524 30.2313C89.2524 25.4587 89.2524 20.6861 89.2524 20.6861Z" fill="white"></path> <path fill-rule="evenodd" clip-rule="evenodd" d="M135.043 17.5042C135.043 16.7724 135.376 14.7202 137.759 14.7202C140.142 14.7202 140.475 16.7724 140.475 17.5042C140.475 18.236 140.475 29.4357 140.475 30.2312C140.475 31.0266 139.767 33.0152 137.759 33.0152C135.751 33.0152 135.043 31.0266 135.043 30.2312C135.043 29.4357 135.043 18.236 135.043 17.5042ZM134.655 9.1702C134.655 8.2696 134.949 7.51121 135.539 6.895C136.129 6.2788 136.863 5.9707 137.742 5.9707C138.62 5.9707 139.36 6.2788 139.962 6.895C140.563 7.51121 140.863 8.2696 140.863 9.1702C140.863 10.0708 140.563 10.8233 139.962 11.4276C139.36 12.032 138.62 12.3342 137.742 12.3342C136.863 12.3342 136.129 12.032 135.539 11.4276C134.949 10.8233 134.655 10.0708 134.655 9.1702ZM159.617 30.765C159.202 31.0016 158.7 31.2263 158.111 31.4392C157.522 31.6521 156.847 31.8355 156.086 31.9892C155.324 32.143 154.481 32.2199 153.558 32.2199C152.312 32.2199 151.106 32.0188 149.94 31.6166C148.775 31.2145 147.753 30.6172 146.876 29.8247C145.999 29.0322 145.295 28.0387 144.764 26.844C144.233 25.6494 143.968 24.2596 143.968 22.6747C143.968 21.1607 144.227 19.8064 144.747 18.6118C145.266 17.4171 145.97 16.4177 146.859 15.6134C147.747 14.8091 148.786 14.194 149.975 13.7682C151.164 13.3424 152.427 13.1295 153.766 13.1295C154.989 13.1295 156.138 13.2892 157.211 13.6085C158.284 13.9279 159.086 14.3596 159.617 14.9037C159.871 15.1639 160.073 15.4419 160.223 15.7376C160.373 16.0333 160.448 16.3822 160.448 16.7843C160.448 17.1865 160.379 17.5532 160.24 17.8843C160.102 18.2155 159.929 18.5112 159.721 18.7714C159.513 19.0317 159.3 19.2623 159.08 19.4634C158.861 19.6645 158.671 19.8123 158.509 19.9069C158.094 19.4811 157.517 19.0849 156.778 18.7182C156.039 18.3516 155.162 18.1682 154.147 18.1682C153.547 18.1682 152.975 18.2628 152.433 18.4521C151.891 18.6413 151.417 18.9252 151.013 19.3037C150.61 19.6822 150.286 20.1553 150.044 20.7231C149.802 21.2908 149.681 21.9413 149.681 22.6747C149.681 23.4553 149.802 24.1236 150.044 24.6795C150.286 25.2354 150.61 25.6908 151.013 26.0457C151.417 26.4005 151.896 26.6607 152.45 26.8263C153.004 26.9919 153.593 27.0747 154.216 27.0747C154.747 27.0747 155.237 27.0215 155.688 26.915C156.138 26.8086 156.536 26.6844 156.882 26.5424C157.228 26.4005 157.517 26.2645 157.748 26.1344C157.978 26.0043 160.654 24.7135 161.43 27.0747C162.206 29.4359 160.033 30.5285 159.617 30.765Z" fill="white"></path> <path fill-rule="evenodd" clip-rule="evenodd" d="M168.602 25.1563C168.648 25.4427 168.771 25.7231 168.969 25.9975C169.166 26.2719 169.446 26.5284 169.807 26.7671C170.168 27.0057 170.627 27.1966 171.186 27.3398C171.745 27.483 172.42 27.5546 173.212 27.5546C173.817 27.5546 174.388 27.5009 174.923 27.3935C175.459 27.2861 175.726 27.2682 176.32 27.0534C176.914 26.8387 179.211 25.5222 180.197 27.5108C181.183 29.4994 179.213 30.7403 178.782 30.955C178.352 31.1698 177.81 31.3846 177.158 31.5993C176.506 31.8141 175.744 31.999 174.871 32.1541C173.998 32.3092 173.037 32.3868 171.99 32.3868C170.686 32.3868 169.463 32.172 168.322 31.7425C167.182 31.313 166.186 30.6866 165.336 29.8633C164.486 29.04 163.817 28.0318 163.328 26.8387C162.839 25.6455 162.595 24.2853 162.595 22.7581C162.595 21.3263 162.839 20.0139 163.328 18.8207C163.817 17.6276 164.492 16.6134 165.354 15.7782C166.215 14.943 167.228 14.2927 168.392 13.8274C169.556 13.3621 170.814 13.1294 172.164 13.1294C173.421 13.1294 174.551 13.3024 175.552 13.6484C176.553 13.9944 177.397 14.4657 178.084 15.0623C178.771 15.6589 179.295 16.339 179.656 17.1026C180.016 17.8662 180.197 18.6537 180.197 19.465C180.197 20.3479 180.046 21.1414 179.743 21.8453C179.44 22.5493 178.899 23.1459 178.119 23.6351C177.339 24.1243 176.279 24.5001 174.941 24.7626C173.602 25.0251 171.896 25.1563 169.824 25.1563H168.602ZM168.323 21.4337C169.882 21.4337 171.093 21.3741 171.955 21.2547C172.816 21.1354 173.456 20.9803 173.876 20.7894C174.295 20.5985 174.551 20.3837 174.644 20.1451C174.737 19.9065 174.784 19.6679 174.784 19.4292C174.784 18.9281 174.562 18.4926 174.12 18.1227C173.678 17.7529 173.014 17.5679 172.129 17.5679C171.501 17.5679 170.954 17.6813 170.488 17.908C170.022 18.1347 169.632 18.427 169.318 18.7849C169.004 19.1429 168.765 19.5545 168.602 20.0198C168.439 20.4852 168.346 20.9565 168.323 21.4337Z" fill="white"></path> <path fill-rule="evenodd" clip-rule="evenodd" d="M73.9165 25.1563C73.9631 25.4427 74.0853 25.7231 74.2832 25.9975C74.4811 26.2719 74.7605 26.5284 75.1214 26.7671C75.4823 27.0057 75.9421 27.1966 76.5009 27.3398C77.0597 27.483 77.735 27.5546 78.5266 27.5546C79.132 27.5546 79.7024 27.5009 80.2379 27.3935C80.7734 27.2861 81.0412 27.2682 81.6349 27.0534C82.2286 26.8387 84.5259 25.5222 85.5116 27.5108C86.4972 29.4994 84.5278 30.7403 84.0971 30.955C83.6664 31.1698 83.125 31.3846 82.4731 31.5993C81.8212 31.8141 81.0586 31.999 80.1855 32.1541C79.3124 32.3092 78.352 32.3868 77.3042 32.3868C76.0003 32.3868 74.778 32.172 73.6371 31.7425C72.4962 31.313 71.5009 30.6866 70.651 29.8633C69.8012 29.04 69.1318 28.0318 68.6428 26.8387C68.1539 25.6455 67.9094 24.2853 67.9094 22.7581C67.9094 21.3263 68.1539 20.0139 68.6428 18.8207C69.1318 17.6276 69.807 16.6134 70.6685 15.7782C71.53 14.943 72.5428 14.2927 73.707 13.8274C74.8711 13.3621 76.1284 13.1294 77.4788 13.1294C78.7361 13.1294 79.8654 13.3024 80.8666 13.6484C81.8677 13.9944 82.7118 14.4657 83.3986 15.0623C84.0855 15.6589 84.6093 16.339 84.9702 17.1026C85.3311 17.8662 85.5116 18.6537 85.5116 19.465C85.5116 20.3479 85.3602 21.1414 85.0575 21.8453C84.7549 22.5493 84.2135 23.1459 83.4335 23.6351C82.6535 24.1243 81.5942 24.5001 80.2554 24.7626C78.9166 25.0251 77.2111 25.1563 75.1389 25.1563H73.9165ZM73.6372 21.4337C75.1971 21.4337 76.4079 21.3741 77.2693 21.2547C78.1308 21.1354 78.7711 20.9803 79.1902 20.7894C79.6093 20.5985 79.8654 20.3837 79.9586 20.1451C80.0517 19.9065 80.0983 19.6679 80.0983 19.4292C80.0983 18.9281 79.8771 18.4926 79.4347 18.1227C78.9923 17.7529 78.3287 17.5679 77.444 17.5679C76.8153 17.5679 76.2682 17.6813 75.8025 17.908C75.3368 18.1347 74.9468 18.427 74.6325 18.7849C74.3182 19.1429 74.0795 19.5545 73.9166 20.0198C73.7536 20.4852 73.6604 20.9565 73.6372 21.4337Z" fill="white"></path> <path d="M103.874 19.7072C103.997 20.1232 104.282 20.5419 104.85 21.3791L111.284 30.8511C111.625 31.3903 111.805 31.7149 112.177 32.1325C112.455 32.444 112.609 32.6675 113.494 33.3905C114.328 33.8849 114.745 34.1321 115.145 34.223C115.992 34.4157 116.877 34.1715 117.517 33.5686C117.82 33.2841 118.061 32.8554 118.543 31.998L132.559 7.07235C133.043 6.21168 133.284 5.78135 133.374 5.36869C133.562 4.4944 133.324 3.58031 132.736 2.92032C132.459 2.6088 132.04 2.36066 131.203 1.86437C130.369 1.36999 129.952 1.1228 129.552 1.03187C128.705 0.839228 127.819 1.0834 127.179 1.68626C126.877 1.97083 126.636 2.39951 126.154 3.25687L115.055 22.9956L110.967 16.9775C110.397 16.138 110.112 15.7183 109.774 15.4562C109.093 14.9285 108.208 14.7679 107.393 15.0241C106.988 15.1514 106.581 15.4454 105.766 16.0336C104.954 16.6202 104.547 16.9135 104.293 17.261C103.782 17.9608 103.627 18.8697 103.874 19.7072Z" fill="white"></path> <path fill-rule="evenodd" clip-rule="evenodd" d="M25.9995 37.8516C25.9995 37.0562 25.9995 23.9316 25.9995 23.9316C25.9995 22.4044 26.1237 21.1277 26.4264 20.0061C26.7291 18.8846 27.1598 17.942 27.7186 17.1784C28.6034 15.9852 29.7326 15.0784 31.1063 14.458C32.48 13.8376 34.0051 13.5273 35.6815 13.5273C37.0552 13.5273 38.3299 13.76 39.5057 14.2253C40.6815 14.6907 41.7002 15.3409 42.5617 16.1761C43.4231 17.0113 44.0984 18.0255 44.5873 19.2187C45.0763 20.4118 45.3207 21.7243 45.3207 23.156C45.3207 24.6117 45.0937 25.9241 44.6397 27.0934C44.1857 28.2627 43.5687 29.265 42.7887 30.1002C42.0087 30.9354 41.0948 31.5797 40.0471 32.0331C38.9993 32.4865 37.8817 32.7132 36.6943 32.7132C35.3904 32.7132 34.3136 32.5044 33.4637 32.0868C32.6139 31.6692 31.8514 31.1223 31.4323 30.6928C31.4323 30.6928 31.4323 37.0562 31.4323 37.8516C31.4323 38.6471 31.4323 41.0334 28.7159 41.0334C25.9995 41.0334 25.9995 38.6471 25.9995 37.8516ZM35.5416 27.5225C36.7057 27.5225 37.6662 27.1109 38.4229 26.2876C39.1796 25.4643 39.5579 24.4084 39.5579 23.1198C39.5579 21.8312 39.1796 20.7932 38.4229 20.0057C37.6662 19.2182 36.7057 18.8245 35.5416 18.8245C34.3774 18.8245 33.417 19.2063 32.6603 19.9699C31.9036 20.7335 31.5252 21.7835 31.5252 23.1198C31.5252 23.7402 31.6242 24.3189 31.8221 24.8558C32.02 25.3927 32.2994 25.8581 32.6603 26.2518C33.0212 26.6455 33.4461 26.9558 33.935 27.1825C34.424 27.4092 34.9595 27.5225 35.5416 27.5225Z" fill="white"></path> </g> <defs> <clipPath id="clip0_918_11479"> <rect width="180.47" height="40.0657" fill="white" transform="translate(0 0.967041)"></rect> </clipPath> </defs> </svg> 